<svg width="152" height="31" viewBox="0 0 152 31" fill="none" xmlns="http://www.w3.org/2000/svg">
<path fill-rule="evenodd" clip-rule="evenodd" d="M63.2526 19.8734L60.8766 19.9561C59.0911 20.0113 57.7621 20.3423 56.8895 20.9488C56.0167 21.5556 55.5807 22.4791 55.5807 23.7199C55.5807 25.4985 56.5738 26.3877 58.5608 26.3877C59.9837 26.3877 61.1215 25.9675 61.974 25.1263C62.8263 24.2854 63.2526 23.1687 63.2526 21.7759V19.8734ZM65.065 30.586L63.8766 27.4427H63.7157C62.6815 28.7801 61.6178 29.7072 60.5241 30.2242C59.4295 30.7412 58.0033 30.9996 56.245 30.9996C54.0832 30.9996 52.3817 30.3658 51.1402 29.0971C49.8983 27.8287 49.2776 26.0227 49.2776 23.6787C49.2776 21.2247 50.1132 19.4153 51.7845 18.2501C53.456 17.0851 55.9761 16.4405 59.3459 16.3164L63.2524 16.1922V15.1789C63.2524 12.8353 62.0843 11.6632 59.7487 11.6632C57.9495 11.6632 55.8353 12.2215 53.4057 13.3383L51.3718 9.07818C53.9625 7.6858 56.8355 6.9895 59.9902 6.9895C63.0107 6.9895 65.3265 7.66511 66.9375 9.01611C68.5483 10.3673 69.354 12.4215 69.354 15.1789V30.586H65.065Z" fill="#0078DB"/>
<path fill-rule="evenodd" clip-rule="evenodd" d="M83.7879 30.9997C76.7805 30.9997 73.2766 27.0497 73.2766 19.1497C73.2766 15.2204 74.2297 12.2184 76.136 10.1431C78.0421 8.06843 80.7741 7.03076 84.3315 7.03076C86.9359 7.03076 89.2717 7.55488 91.3391 8.60244L89.5268 13.4832C88.5603 13.0835 87.6607 12.7561 86.8285 12.5007C85.9959 12.2458 85.1639 12.1182 84.3315 12.1182C81.1365 12.1182 79.5391 14.4485 79.5391 19.1083C79.5391 23.6305 81.1365 25.8916 84.3315 25.8916C85.5127 25.8916 86.6071 25.7297 87.6138 25.4056C88.6208 25.0817 89.6277 24.5751 90.6344 23.8854V29.2832C89.6406 29.9315 88.6374 30.3793 87.624 30.6273C86.6104 30.8756 85.3315 30.9997 83.7879 30.9997" fill="#0078DB"/>
<path fill-rule="evenodd" clip-rule="evenodd" d="M107.384 7.03076C108.216 7.03076 108.908 7.09283 109.458 7.21696L108.995 13.1317C108.498 12.9938 107.894 12.9248 107.183 12.9248C105.223 12.9248 103.696 13.4418 102.602 14.4758C101.507 15.5098 100.961 16.9576 100.961 18.8187V30.5862H94.8186V7.465H99.4703L100.377 11.3532H100.678C101.377 10.0573 102.32 9.013 103.508 8.21992C104.696 7.4273 105.988 7.03076 107.384 7.03076" fill="#0078DB"/>
<path fill-rule="evenodd" clip-rule="evenodd" d="M121.838 11.5185C120.536 11.5185 119.516 11.9424 118.778 12.7904C118.039 13.6382 117.616 14.8414 117.509 16.399H126.128C126.1 14.8414 125.705 13.6382 124.939 12.7904C124.174 11.9424 123.14 11.5185 121.838 11.5185M122.704 30.9999C119.08 30.9999 116.247 29.9729 114.207 27.9184C112.166 25.8642 111.146 22.9551 111.146 19.1911C111.146 15.317 112.089 12.3219 113.975 10.2054C115.861 8.08914 118.469 7.03101 121.798 7.03101C124.98 7.03101 127.457 7.96155 129.229 9.82288C131.001 11.684 131.887 14.2556 131.887 17.5367V20.5975H117.368C117.435 22.3899 117.952 23.7894 118.919 24.7955C119.885 25.8022 121.241 26.3054 122.986 26.3054C124.342 26.3054 125.624 26.1606 126.832 25.8711C128.04 25.5815 129.302 25.1199 130.618 24.4854V29.3662C129.544 29.9177 128.396 30.3278 127.175 30.5965C125.953 30.8655 124.463 30.9999 122.704 30.9999" fill="#0078DB"/>
<path fill-rule="evenodd" clip-rule="evenodd" d="M151.556 23.7202C151.556 26.0916 150.753 27.8977 149.149 29.1386C147.545 30.3795 145.145 30.9997 141.951 30.9997C140.312 30.9997 138.916 30.8861 137.762 30.6586C136.607 30.431 135.527 30.097 134.52 29.6556V24.444C135.661 24.9955 136.946 25.4573 138.376 25.8297C139.806 26.2019 141.065 26.3879 142.152 26.3879C144.38 26.3879 145.494 25.7263 145.494 24.4027C145.494 23.9064 145.347 23.5031 145.051 23.1928C144.756 22.8825 144.246 22.531 143.521 22.1381C142.796 21.7453 141.83 21.2871 140.621 20.7628C138.89 20.0182 137.617 19.329 136.806 18.6948C135.993 18.0608 135.403 17.3334 135.033 16.513C134.664 15.6928 134.48 14.6827 134.48 13.4832C134.48 11.429 135.255 9.84033 136.806 8.71623C138.356 7.59281 140.554 7.03076 143.4 7.03076C146.112 7.03076 148.75 7.63787 151.314 8.85071L149.462 13.4005C148.334 12.9042 147.28 12.4977 146.3 12.1803C145.32 11.8633 144.32 11.7046 143.3 11.7046C141.487 11.7046 140.581 12.2081 140.581 13.2145C140.581 13.78 140.873 14.2692 141.457 14.6827C142.041 15.0963 143.32 15.71 145.293 16.5234C147.052 17.2544 148.34 17.9366 149.159 18.5706C149.978 19.2049 150.582 19.9357 150.972 20.7628C151.361 21.5901 151.556 22.5758 151.556 23.7202" fill="#0078DB"/>
<path fill-rule="evenodd" clip-rule="evenodd" d="M10.1286 5.12882C8.83984 5.12882 7.83315 5.58375 7.10808 6.49361C6.38324 7.4037 6.02082 8.71378 6.02082 10.4232C6.02082 11.8847 6.34954 13.0426 7.00743 13.8975C7.6651 14.7524 8.66532 15.1796 10.0079 15.1796C11.2694 15.1796 12.3502 14.7557 13.2498 13.9076C14.1489 13.0599 14.5988 12.0845 14.5988 10.9813C14.5988 9.34088 14.1792 7.95518 13.3403 6.82464C12.5012 5.69433 11.4306 5.12882 10.1286 5.12882M20.7807 13.2562C20.7807 19.2123 19.5591 23.6584 17.1158 26.5951C14.6724 29.5318 10.9744 31 6.02076 31C4.27538 31 2.95313 30.9035 2.05378 30.7106V25.5818C3.18143 25.8714 4.36241 26.016 5.59786 26.016C7.67842 26.016 9.3901 25.7027 10.7327 25.0751C12.0748 24.448 13.1018 23.4621 13.8135 22.1177C14.5249 20.7736 14.9342 18.9227 15.0418 16.5653H14.8001C14.0214 17.8613 13.1219 18.7712 12.1018 19.2951C11.0815 19.8192 9.8063 20.0808 8.27607 20.0808C5.71167 20.0808 3.69136 19.2364 2.21491 17.5475C0.737995 15.8588 0 13.5116 0 10.5059C0 7.26599 0.895889 4.70492 2.68813 2.8229C4.48014 0.941121 6.91988 0 10.0078 0C12.1823 0 14.0854 0.524122 15.7165 1.57168C17.3474 2.61969 18.599 4.13965 19.4718 6.13177C20.3444 8.12436 20.7807 10.499 20.7807 13.2562" fill="#0078DB"/>
<path fill-rule="evenodd" clip-rule="evenodd" d="M33.6682 5.12882C32.3794 5.12882 31.3727 5.58375 30.6476 6.49361C29.9228 7.4037 29.5604 8.71378 29.5604 10.4232C29.5604 11.8847 29.8891 13.0426 30.547 13.8975C31.2047 14.7524 32.2049 15.1796 33.5474 15.1796C34.809 15.1796 35.8898 14.7557 36.7894 13.9076C37.6885 13.0599 38.1384 12.0845 38.1384 10.9813C38.1384 9.34088 37.7187 7.95518 36.8799 6.82464C36.0407 5.69433 34.9701 5.12882 33.6682 5.12882M44.3202 13.2562C44.3202 19.2123 43.0986 23.6584 40.6554 26.5951C38.212 29.5318 34.5139 31 29.5603 31C27.8149 31 26.4927 30.9035 25.5933 30.7106V25.5818C26.721 25.8714 27.902 26.016 29.1374 26.016C31.218 26.016 32.9297 25.7027 34.2722 25.0751C35.6143 24.448 36.6413 23.4621 37.353 22.1177C38.0645 20.7736 38.4737 18.9227 38.5813 16.5653H38.3396C37.561 17.8613 36.6614 18.7712 35.6413 19.2951C34.621 19.8192 33.3459 20.0808 31.8156 20.0808C29.2512 20.0808 27.2309 19.2364 25.7545 17.5475C24.2775 15.8588 23.5396 13.5116 23.5396 10.5059C23.5396 7.26599 24.4354 4.70492 26.2277 2.8229C28.0197 0.941121 30.4594 0 33.5474 0C35.7219 0 37.6249 0.524122 39.256 1.57168C40.8869 2.61969 42.1385 4.13965 43.0113 6.13177C43.8839 8.12436 44.3202 10.499 44.3202 13.2562" fill="#0078DB"/>
</svg>
