<svg width="230" height="44" viewBox="0 0 230 44" fill="none" xmlns="http://www.w3.org/2000/svg">
<g clip-path="url(#clip0_338_1707)">
<path d="M223.305 28.9297H227.519L222.385 21.5697L227.192 14.5955H222.978L220.04 19.0174L217.072 14.5955H212.858L217.636 21.5697L212.561 28.9297H216.746L220.04 24.0922L223.305 28.9297Z" fill="#040A1E"/>
<path d="M204.254 29.2857C209.003 29.2857 211.852 25.8431 211.852 21.7476C211.852 17.6818 209.003 14.2393 204.254 14.2393C199.536 14.2393 196.687 17.6818 196.687 21.7476C196.687 25.8431 199.536 29.2857 204.254 29.2857ZM204.254 25.9322C201.91 25.9322 200.604 24.0031 200.604 21.7476C200.604 19.5218 201.91 17.5928 204.254 17.5928C206.599 17.5928 207.934 19.5218 207.934 21.7476C207.934 24.0031 206.599 25.9322 204.254 25.9322Z" fill="#040A1E"/>
<path d="M177.51 28.9296H188.253C192.022 28.9296 194.01 26.5554 194.01 23.5877C194.01 21.0948 192.319 19.047 190.211 18.7206C192.081 18.3348 193.624 16.6728 193.624 14.1799C193.624 11.5386 191.695 9.13477 187.926 9.13477H177.51V28.9296ZM181.724 17.0883V12.7257H187.006C188.431 12.7257 189.321 13.6754 189.321 14.8922C189.321 16.1683 188.431 17.0883 187.006 17.0883H181.724ZM181.724 25.3386V20.6793H187.155C188.817 20.6793 189.707 21.7477 189.707 22.9941C189.707 24.4186 188.757 25.3386 187.155 25.3386H181.724Z" fill="#040A1E"/>
<path d="M169.402 28.9296H173.171V18.8096C173.171 16.0199 171.657 14.2393 168.511 14.2393C166.167 14.2393 164.416 15.367 163.496 16.4651V14.5954H159.727V28.9296H163.496V19.2844C164.119 18.4238 165.276 17.5928 166.76 17.5928C168.363 17.5928 169.402 18.2754 169.402 20.2638V28.9296Z" fill="#040A1E"/>
<path d="M148.826 29.2857C153.574 29.2857 156.423 25.8431 156.423 21.7476C156.423 17.6818 153.574 14.2393 148.826 14.2393C144.107 14.2393 141.258 17.6818 141.258 21.7476C141.258 25.8431 144.107 29.2857 148.826 29.2857ZM148.826 25.9322C146.481 25.9322 145.175 24.0031 145.175 21.7476C145.175 19.5218 146.481 17.5928 148.826 17.5928C151.17 17.5928 152.506 19.5218 152.506 21.7476C152.506 24.0031 151.17 25.9322 148.826 25.9322Z" fill="#040A1E"/>
<path d="M136.034 12.4883C137.28 12.4883 138.289 11.4792 138.289 10.2328C138.289 8.98633 137.28 7.97729 136.034 7.97729C134.817 7.97729 133.778 8.98633 133.778 10.2328C133.778 11.4792 134.817 12.4883 136.034 12.4883ZM134.164 28.9296H137.933V14.5954H134.164V28.9296Z" fill="#040A1E"/>
<path d="M128.437 29.2855C130.01 29.2855 131.019 28.87 131.583 28.3655L130.781 25.5164C130.574 25.7242 130.039 25.9319 129.475 25.9319C128.645 25.9319 128.17 25.2493 128.17 24.359V17.8893H131.078V14.5952H128.17V10.6777H124.371V14.5952H121.997V17.8893H124.371V25.3681C124.371 27.9203 125.795 29.2855 128.437 29.2855Z" fill="#040A1E"/>
<path d="M117.485 12.4883C118.731 12.4883 119.74 11.4792 119.74 10.2328C119.74 8.98633 118.731 7.97729 117.485 7.97729C116.268 7.97729 115.229 8.98633 115.229 10.2328C115.229 11.4792 116.268 12.4883 117.485 12.4883ZM115.615 28.9296H119.384V14.5954H115.615V28.9296Z" fill="#040A1E"/>
<path d="M97.7187 28.9296H101.488V27.1193C102.615 28.5141 104.188 29.2857 105.91 29.2857C109.53 29.2857 112.261 26.5554 112.261 21.7773C112.261 17.0883 109.56 14.2393 105.91 14.2393C104.218 14.2393 102.615 14.9812 101.488 16.4354V9.13477H97.7187V28.9296ZM101.488 24.3296V19.2548C102.111 18.3051 103.506 17.5928 104.723 17.5928C106.919 17.5928 108.373 19.2844 108.373 21.7773C108.373 24.2703 106.919 25.9322 104.723 25.9322C103.506 25.9322 102.111 25.2496 101.488 24.3296Z" fill="#040A1E"/>
<path d="M89.7158 28.9296H93.5145V18.5722C93.5145 15.6341 91.9416 14.2393 89.3003 14.2393C87.1042 14.2393 85.2048 15.5451 84.3739 16.8509C83.8397 15.2186 82.5042 14.2393 80.3971 14.2393C78.201 14.2393 76.3016 15.6044 75.7081 16.4651V14.5954H71.939V28.9296H75.7081V19.2844C76.2719 18.4831 77.37 17.5928 78.6758 17.5928C80.219 17.5928 80.8126 18.5425 80.8126 19.878V28.9296H84.6113V19.2547C85.1455 18.4831 86.2435 17.5928 87.579 17.5928C89.1222 17.5928 89.7158 18.5425 89.7158 19.878V28.9296Z" fill="#040A1E"/>
<path d="M65.0927 28.9296H69.6927L62.0656 9.13477H56.783L49.1262 28.9296H53.7559L55.0023 25.5167H63.8462L65.0927 28.9296ZM59.4243 12.7851L62.6888 21.8664H56.1301L59.4243 12.7851Z" fill="#040A1E"/>
<path d="M17.7813 0.573133C18.6725 0.0542907 19.7738 0.0542899 20.6651 0.573132L36.7213 9.92015C37.6031 10.4335 38.1455 11.3768 38.1455 12.3971V31.1323C38.1455 32.1525 37.6031 33.0959 36.7213 33.6092L20.6899 42.9418C19.7854 43.4683 18.6659 43.46 17.7694 42.9201L3.01196 34.0329C2.07731 33.47 2.08946 32.1108 3.03401 31.5647L18.9369 22.3707C19.1141 22.2683 19.2232 22.0791 19.2232 21.8745V12.6074C19.2232 12.165 18.7433 11.8894 18.3612 12.1122L2.45583 21.3879C1.5005 21.945 0.300903 21.2559 0.300903 20.15L0.300903 12.3971C0.300903 11.3768 0.843288 10.4335 1.72503 9.92015L17.7813 0.573133Z" fill="url(#paint0_linear_338_1707)"/>
<path d="M17.7813 0.573133C18.6725 0.0542907 19.7738 0.0542899 20.6651 0.573132L36.7213 9.92015C37.6031 10.4335 38.1455 11.3768 38.1455 12.3971V31.1323C38.1455 32.1525 37.6031 33.0959 36.7213 33.6092L20.6899 42.9418C19.7854 43.4683 18.6659 43.46 17.7694 42.9201L3.42802 34.2835C2.30644 33.608 2.32101 31.9769 3.45447 31.3216L17.7916 23.0328C18.6776 22.5206 19.2232 21.5749 19.2232 20.5516V13.6052C19.2232 12.7205 18.2635 12.1692 17.4992 12.6149L2.45583 21.3879C1.5005 21.945 0.300903 21.2559 0.300903 20.15L0.300903 12.3971C0.300903 11.3768 0.843288 10.4335 1.72503 9.92015L17.7813 0.573133Z" fill="url(#paint1_linear_338_1707)"/>
<path fill-rule="evenodd" clip-rule="evenodd" d="M18.358 0.237374C18.8928 -0.0739313 19.5536 -0.0739322 20.0883 0.237373L37.291 10.2518C37.82 10.5597 38.1455 11.1258 38.1455 11.7379V31.7914C38.1455 32.4036 37.82 32.9696 37.291 33.2775L20.1032 43.2833C19.5605 43.5992 18.8888 43.5942 18.3509 43.2703L3.01196 34.0329C2.07731 33.47 2.08946 32.1108 3.03401 31.5647L17.9348 22.95C18.7321 22.4891 19.2232 21.6379 19.2232 20.7169V13.6052C19.2232 12.7205 18.2635 12.1692 17.4992 12.6149L2.45583 21.3879C1.5005 21.945 0.300903 21.2559 0.300903 20.15L0.300903 11.7379C0.300903 11.1258 0.626334 10.5597 1.15538 10.2518L18.358 0.237374Z" fill="#5570FF"/>
<mask id="mask0_338_1707" style="mask-type:luminance" maskUnits="userSpaceOnUse" x="0" y="0" width="39" height="44">
<path fill-rule="evenodd" clip-rule="evenodd" d="M18.358 0.237526C18.8928 -0.0737793 19.5536 -0.0737802 20.0883 0.237525L37.291 10.2519C37.82 10.5599 38.1455 11.1259 38.1455 11.7381V31.7916C38.1455 32.4037 37.82 32.9697 37.291 33.2777L20.1032 43.2835C19.5605 43.5994 18.8888 43.5944 18.3509 43.2704L3.01196 34.0331C2.07731 33.4702 2.08946 32.1109 3.03401 31.5648L17.9348 22.9502C18.7321 22.4892 19.2232 21.6381 19.2232 20.7171V13.6054C19.2232 12.7207 18.2635 12.1694 17.4992 12.6151L2.45583 21.388C1.5005 21.9451 0.300903 21.256 0.300903 20.1501L0.300903 11.7381C0.300903 11.1259 0.626334 10.5599 1.15538 10.2519L18.358 0.237526Z" fill="white"/>
</mask>
<g mask="url(#mask0_338_1707)">
<path fill-rule="evenodd" clip-rule="evenodd" d="M37.4163 33.5003C37.9897 33.1622 37.9779 32.3289 37.3953 32.007L19.7596 22.2664C19.7596 22.2664 19.1558 21.9188 19.2188 21.1201C10.3614 26.0274 0.863892 32.7353 0.863892 32.7353L19.5092 44.059L37.4163 33.5003Z" fill="#3655FF"/>
<path fill-rule="evenodd" clip-rule="evenodd" d="M19.2249 1.74499C19.2249 0.861279 18.2672 0.309864 17.5029 0.753521L0 10.9139L0.0165818 23.806L18.7022 15.8401C19.0192 15.705 19.2249 15.3937 19.2249 15.0492V1.74499Z" fill="#4461FF"/>
</g>
</g>
<defs>
<linearGradient id="paint0_linear_338_1707" x1="41.4655" y1="43.5208" x2="41.4655" y2="-7.63592" gradientUnits="userSpaceOnUse">
<stop stop-color="#0169E1"/>
<stop offset="1" stop-color="#0F8EF1"/>
</linearGradient>
<linearGradient id="paint1_linear_338_1707" x1="41.4655" y1="43.5208" x2="41.4655" y2="-7.63592" gradientUnits="userSpaceOnUse">
<stop stop-color="#0169E1"/>
<stop offset="1" stop-color="#0F8EF1"/>
</linearGradient>
<clipPath id="clip0_338_1707">
<rect width="230" height="44" fill="white"/>
</clipPath>
</defs>
</svg>
