<svg width="133" height="34" viewBox="0 0 133 34" fill="none" xmlns="http://www.w3.org/2000/svg">
<path d="M125.419 27.0388C124.002 27.0388 122.73 26.8102 121.602 26.353C120.474 25.8957 119.512 25.2613 118.718 24.4498C117.935 23.6268 117.331 22.6723 116.905 21.5864C116.49 20.4891 116.283 19.3118 116.283 18.0544V17.3686C116.283 15.9398 116.49 14.6424 116.905 13.4765C117.319 12.2992 117.906 11.2876 118.666 10.4417C119.426 9.59586 120.336 8.94432 121.395 8.4871C122.454 8.02988 123.623 7.80127 124.9 7.80127C126.225 7.80127 127.393 8.02416 128.406 8.46995C129.419 8.90431 130.266 9.52156 130.945 10.3217C131.624 11.1218 132.137 12.082 132.482 13.2022C132.827 14.3109 133 15.5397 133 16.8885V18.7917H118.355V15.6712H128.51V15.3282C128.487 14.6081 128.349 13.9509 128.095 13.3565C127.842 12.7507 127.451 12.2706 126.921 11.9162C126.391 11.5505 125.706 11.3676 124.866 11.3676C124.187 11.3676 123.594 11.5162 123.087 11.8134C122.592 12.0991 122.178 12.5106 121.844 13.0479C121.521 13.5737 121.28 14.2023 121.118 14.9339C120.957 15.6654 120.877 16.477 120.877 17.3686V18.0544C120.877 18.8317 120.98 19.5518 121.188 20.2148C121.406 20.8778 121.723 21.455 122.137 21.9465C122.563 22.4266 123.07 22.8038 123.657 23.0781C124.256 23.341 124.935 23.4725 125.695 23.4725C126.65 23.4725 127.514 23.2896 128.285 22.9238C129.068 22.5466 129.748 21.9922 130.323 21.2607L132.62 23.6268C132.229 24.1983 131.699 24.747 131.031 25.2728C130.375 25.7986 129.581 26.2272 128.648 26.5587C127.715 26.8788 126.639 27.0388 125.419 27.0388Z" fill="#4F4C4C"/>
<path d="M108.771 8.14418H112.915V26.1301C112.915 27.8103 112.547 29.2334 111.81 30.3994C111.085 31.5767 110.066 32.4683 108.753 33.0741C107.441 33.6913 105.915 34 104.177 34C103.428 34 102.617 33.8971 101.742 33.6913C100.878 33.4856 100.044 33.1598 99.2377 32.714C98.4433 32.2797 97.7813 31.7139 97.2517 31.0166L99.3068 28.3419C99.9285 29.062 100.631 29.6049 101.414 29.9707C102.197 30.3479 103.043 30.5365 103.952 30.5365C104.873 30.5365 105.656 30.3651 106.301 30.0221C106.957 29.6907 107.458 29.1992 107.803 28.5476C108.16 27.9075 108.339 27.1188 108.339 26.1815V12.3792L108.771 8.14418ZM96.1464 17.6429V17.2829C96.1464 15.8655 96.3191 14.5796 96.6645 13.4251C97.0099 12.2592 97.5049 11.259 98.1497 10.4246C98.8059 9.59014 99.5946 8.94432 100.516 8.4871C101.448 8.02988 102.496 7.80127 103.659 7.80127C104.891 7.80127 105.927 8.02416 106.767 8.46995C107.619 8.91574 108.322 9.55014 108.874 10.3731C109.438 11.1961 109.876 12.1734 110.187 13.3051C110.509 14.4252 110.757 15.6597 110.929 17.0085V17.9858C110.768 19.3003 110.509 20.5063 110.152 21.6036C109.807 22.7009 109.346 23.6611 108.771 24.4841C108.195 25.2956 107.481 25.9243 106.629 26.3701C105.777 26.8159 104.776 27.0388 103.624 27.0388C102.473 27.0388 101.437 26.8045 100.516 26.3358C99.5946 25.8672 98.8059 25.2099 98.1497 24.3641C97.5049 23.5182 97.0099 22.5237 96.6645 21.3807C96.3191 20.2376 96.1464 18.9917 96.1464 17.6429ZM100.706 17.2829V17.6429C100.706 18.4431 100.786 19.1918 100.947 19.889C101.109 20.5863 101.356 21.2035 101.69 21.7408C102.024 22.2666 102.444 22.6781 102.951 22.9752C103.457 23.2724 104.062 23.421 104.764 23.421C105.708 23.421 106.479 23.2267 107.078 22.8381C107.688 22.438 108.149 21.8951 108.46 21.2092C108.782 20.512 108.989 19.729 109.081 18.8603V16.1684C109.024 15.4826 108.897 14.8482 108.701 14.2652C108.517 13.6823 108.258 13.1793 107.924 12.7564C107.59 12.3335 107.164 12.002 106.646 11.7619C106.128 11.5219 105.512 11.4019 104.799 11.4019C104.108 11.4019 103.503 11.5562 102.985 11.8648C102.467 12.162 102.041 12.5792 101.707 13.1164C101.373 13.6537 101.12 14.2766 100.947 14.9853C100.786 15.694 100.706 16.4599 100.706 17.2829Z" fill="#4F4C4C"/>
<path d="M88.1678 22.7522V0.359863H92.7616V26.6957H88.6168L88.1678 22.7522ZM76.1653 17.6428V17.2827C76.1653 15.8653 76.3265 14.5794 76.6489 13.4249C76.9828 12.259 77.4663 11.2588 78.0996 10.4244C78.7328 9.58999 79.4984 8.94416 80.3964 8.48694C81.306 8.02972 82.3364 7.80111 83.4877 7.80111C84.6045 7.80111 85.5773 8.02401 86.4063 8.4698C87.2468 8.91559 87.9606 9.54998 88.5477 10.373C89.1464 11.196 89.6242 12.1733 89.9811 13.3049C90.338 14.4251 90.5971 15.6596 90.7583 17.0084V17.9857C90.5971 19.3002 90.338 20.5061 89.9811 21.6034C89.6242 22.7008 89.1464 23.6609 88.5477 24.4839C87.9606 25.2955 87.2468 25.9242 86.4063 26.3699C85.5658 26.8157 84.5815 27.0386 83.4532 27.0386C82.3134 27.0386 81.2887 26.8043 80.3792 26.3357C79.4811 25.867 78.7155 25.2098 78.0823 24.3639C77.4606 23.518 76.9828 22.5236 76.6489 21.3805C76.3265 20.2375 76.1653 18.9916 76.1653 17.6428ZM80.7418 17.2827V17.6428C80.7418 18.4429 80.8109 19.1916 80.9491 19.8889C81.0872 20.5861 81.3117 21.2034 81.6226 21.7406C81.9334 22.2664 82.3306 22.6779 82.8142 22.9751C83.3093 23.2723 83.9079 23.4209 84.6102 23.4209C85.5083 23.4209 86.2451 23.2266 86.8208 22.8379C87.4079 22.4379 87.8627 21.8949 88.1851 21.2091C88.5074 20.5118 88.7147 19.7288 88.8068 18.8601V16.1682C88.7607 15.4824 88.6398 14.848 88.4441 14.2651C88.2599 13.6821 87.9951 13.1792 87.6497 12.7562C87.3158 12.3333 86.9014 12.0018 86.4063 11.7618C85.9112 11.5217 85.3241 11.4017 84.6448 11.4017C83.9425 11.4017 83.3438 11.556 82.8487 11.8647C82.3537 12.1618 81.9507 12.5791 81.6398 13.1163C81.329 13.6535 81.0987 14.2765 80.9491 14.9852C80.8109 15.6939 80.7418 16.4597 80.7418 17.2827Z" fill="#4F4C4C"/>
<path d="M66.3216 27.0388C64.9055 27.0388 63.6333 26.8102 62.505 26.353C61.3767 25.8957 60.4154 25.2613 59.6209 24.4498C58.8381 23.6268 58.2336 22.6723 57.8076 21.5864C57.3931 20.4891 57.1859 19.3118 57.1859 18.0544V17.3686C57.1859 15.9398 57.3931 14.6424 57.8076 13.4765C58.2221 12.2992 58.8093 11.2876 59.5691 10.4417C60.329 9.59586 61.2385 8.94432 62.2978 8.4871C63.357 8.02988 64.5255 7.80127 65.8035 7.80127C67.1275 7.80127 68.2961 8.02416 69.3093 8.46995C70.3224 8.90431 71.1686 9.52156 71.8479 10.3217C72.5272 11.1218 73.0395 12.082 73.3849 13.2022C73.7303 14.3109 73.903 15.5397 73.903 16.8885V18.7917H59.2583V15.6712H69.4129V15.3282C69.3899 14.6081 69.2517 13.9509 68.9984 13.3565C68.7451 12.7507 68.3537 12.2706 67.8241 11.9162C67.2945 11.5505 66.6094 11.3676 65.769 11.3676C65.0897 11.3676 64.4968 11.5162 63.9902 11.8134C63.4951 12.0991 63.0806 12.5106 62.7468 13.0479C62.4244 13.5737 62.1826 14.2023 62.0214 14.9339C61.8603 15.6654 61.7797 16.477 61.7797 17.3686V18.0544C61.7797 18.8317 61.8833 19.5518 62.0905 20.2148C62.3093 20.8778 62.6259 21.455 63.0404 21.9465C63.4663 22.4266 63.9729 22.8038 64.5601 23.0781C65.1588 23.341 65.838 23.4725 66.5979 23.4725C67.5535 23.4725 68.417 23.2896 69.1884 22.9238C69.9713 22.5466 70.6505 21.9922 71.2262 21.2607L73.5231 23.6268C73.1316 24.1983 72.602 24.747 71.9343 25.2728C71.278 25.7986 70.4836 26.2272 69.551 26.5587C68.6185 26.8788 67.542 27.0388 66.3216 27.0388Z" fill="#4F4C4C"/>
<path d="M37.6193 17.7115V17.1457C37.6193 15.7969 37.815 14.551 38.2065 13.4079C38.5979 12.2649 39.1563 11.2761 39.8817 10.4417C40.6185 9.60729 41.4993 8.96146 42.5239 8.50424C43.5486 8.03559 44.6884 7.80127 45.9433 7.80127C47.2098 7.80127 48.3553 8.03559 49.38 8.50424C50.4047 8.96146 51.2854 9.60729 52.0223 10.4417C52.7591 11.2761 53.3233 12.2649 53.7147 13.4079C54.1062 14.551 54.3019 15.7969 54.3019 17.1457V17.7115C54.3019 19.0603 54.1062 20.3062 53.7147 21.4493C53.3233 22.5809 52.7591 23.5639 52.0223 24.3983C51.2969 25.2328 50.4219 25.8843 49.3973 26.353C48.3726 26.8102 47.2328 27.0388 45.9779 27.0388C44.7114 27.0388 43.5659 26.8102 42.5412 26.353C41.5165 25.8843 40.6358 25.2328 39.8989 24.3983C39.1621 23.5639 38.5979 22.5809 38.2065 21.4493C37.815 20.3062 37.6193 19.0603 37.6193 17.7115ZM39.6744 17.1457V17.7115C39.6744 18.7288 39.8126 19.6947 40.0889 20.6091C40.3652 21.5121 40.7682 22.318 41.2978 23.0267C41.8274 23.7239 42.4836 24.2726 43.2665 24.6727C44.0494 25.0727 44.9532 25.2728 45.9779 25.2728C46.991 25.2728 47.8833 25.0727 48.6547 24.6727C49.4376 24.2726 50.0938 23.7239 50.6234 23.0267C51.153 22.318 51.5502 21.5121 51.815 20.6091C52.0914 19.6947 52.2295 18.7288 52.2295 17.7115V17.1457C52.2295 16.1398 52.0914 15.1854 51.815 14.2824C51.5502 13.3793 51.1473 12.5735 50.6062 11.8648C50.0766 11.1561 49.4203 10.596 48.6374 10.1845C47.8545 9.77303 46.9565 9.56728 45.9433 9.56728C44.9302 9.56728 44.0321 9.77303 43.2493 10.1845C42.4779 10.596 41.8216 11.1561 41.2805 11.8648C40.7509 12.5735 40.3479 13.3793 40.0716 14.2824C39.8068 15.1854 39.6744 16.1398 39.6744 17.1457Z" fill="#4F4C4C"/>
<path d="M30.5905 26.6959H28.5354V5.8467C28.5354 4.57791 28.7542 3.50916 29.1917 2.64044C29.6407 1.77173 30.2739 1.11447 31.0914 0.668684C31.9203 0.222895 32.9047 0 34.0445 0C34.4014 0 34.7698 0.022861 35.1497 0.068583C35.5297 0.102874 35.8981 0.177173 36.255 0.291478L36.0996 2.0232C35.8117 1.94318 35.5182 1.89175 35.2188 1.86889C34.931 1.83459 34.5914 1.81745 34.1999 1.81745C33.4515 1.81745 32.8068 1.97748 32.2657 2.29753C31.7246 2.60615 31.3101 3.05766 31.0223 3.65204C30.7344 4.24643 30.5905 4.97798 30.5905 5.8467V26.6959ZM35.0461 8.14423V9.82451H25.4442V8.14423H35.0461Z" fill="#4F4C4C"/>
<path d="M9.65962 12.1049V26.6959H7.60452V8.14418H9.57327L9.65962 12.1049ZM9.19334 16.2713L8.27804 15.7569C8.34712 14.6596 8.57163 13.6308 8.95156 12.6707C9.3315 11.7105 9.84383 10.8646 10.4886 10.1331C11.1448 9.40154 11.9104 8.83001 12.7854 8.41852C13.672 8.00702 14.6506 7.80127 15.7213 7.80127C16.6539 7.80127 17.4886 7.927 18.2254 8.17848C18.9622 8.42995 19.5897 8.83001 20.1078 9.37868C20.6259 9.92734 21.0173 10.6303 21.2821 11.4876C21.5585 12.3449 21.6966 13.3908 21.6966 14.6253V26.6959H19.6243V14.6081C19.6243 13.3279 19.4458 12.3277 19.0889 11.6076C18.732 10.8761 18.2254 10.356 17.5692 10.0474C16.9129 9.73874 16.1358 9.58443 15.2377 9.58443C14.2476 9.58443 13.3784 9.80161 12.63 10.236C11.8932 10.6589 11.2715 11.2133 10.7649 11.8991C10.2698 12.5735 9.88988 13.2993 9.62508 14.0766C9.36028 14.8425 9.21636 15.574 9.19334 16.2713Z" fill="#4F4C4C"/>
<path d="M0.448456 27.328V9.13867H2.57056V27.328H0.448456Z" fill="#4F4C4C"/>
<path d="M2.94737 3.2861C2.94737 4.09415 2.28758 4.7492 1.47368 4.7492C0.65979 4.7492 0 4.09415 0 3.2861C0 2.47805 0.65979 1.823 1.47368 1.823C2.28758 1.823 2.94737 2.47805 2.94737 3.2861Z" fill="#4F4C4C"/>
</svg>
