<svg width="192" height="37" viewBox="0 0 192 37" fill="none" xmlns="http://www.w3.org/2000/svg">
<path d="M189.193 13.4959C189.293 13.4467 189.393 13.4221 189.493 13.4221C189.667 13.4221 189.755 13.5328 189.755 13.754V29.9067C189.755 30.7918 189.867 31.4679 190.091 31.9351C190.341 32.3776 190.603 32.7218 190.877 32.9676C191.152 33.1889 191.401 33.3487 191.626 33.4471C191.875 33.5454 192 33.656 192 33.779C192 33.9019 191.938 33.9634 191.813 33.9634H183.018C182.894 33.9634 182.831 33.9019 182.831 33.779C182.831 33.656 182.944 33.5454 183.168 33.4471C183.418 33.3487 183.68 33.1889 183.954 32.9676C184.228 32.7218 184.478 32.3776 184.702 31.9351C184.952 31.4679 185.077 30.7918 185.077 29.9067V21.1666C185.077 20.2815 185.014 19.5931 184.89 19.1014C184.765 18.5851 184.603 18.204 184.403 17.9582C184.203 17.6877 183.979 17.5156 183.729 17.4419C183.505 17.3681 183.293 17.3312 183.093 17.3312C182.919 17.3312 182.831 17.2575 182.831 17.11C182.831 17.0116 182.906 16.9256 183.056 16.8518L189.193 13.4959Z" fill="#E63157"/>
<path d="M168.425 6.85721C168.525 6.80803 168.625 6.78345 168.725 6.78345C168.899 6.78345 168.987 6.89408 168.987 7.11535V19.4327C169.186 18.5968 169.448 17.8224 169.772 17.1094C170.122 16.3718 170.533 15.7326 171.007 15.1917C171.481 14.6508 172.03 14.2206 172.654 13.901C173.303 13.5814 174.039 13.4216 174.862 13.4216C175.61 13.4216 176.334 13.5691 177.033 13.8641C177.756 14.1345 178.392 14.5648 178.941 15.1548C179.515 15.7449 179.964 16.4947 180.288 17.4044C180.638 18.3141 180.812 19.3958 180.812 20.6497V29.9062C180.812 30.7913 180.925 31.4674 181.149 31.9345C181.399 32.377 181.661 32.7212 181.935 32.9671C182.209 33.1884 182.459 33.3482 182.684 33.4465C182.933 33.5448 183.058 33.6555 183.058 33.7784C183.058 33.9013 182.995 33.9628 182.871 33.9628H174.076C173.951 33.9628 173.889 33.9013 173.889 33.7784C173.889 33.6555 174.001 33.5448 174.226 33.4465C174.475 33.3482 174.737 33.1884 175.012 32.9671C175.286 32.7212 175.536 32.377 175.76 31.9345C176.01 31.4674 176.134 30.7913 176.134 29.9062V19.654C176.134 19.0148 176.097 18.4124 176.022 17.847C175.972 17.2815 175.86 16.7775 175.685 16.3349C175.536 15.8924 175.299 15.5482 174.974 15.3023C174.675 15.0319 174.276 14.8967 173.777 14.8967C173.028 14.8967 172.355 15.1917 171.756 15.7818C171.182 16.3472 170.683 17.0971 170.259 18.0313C169.86 18.9656 169.548 20.0351 169.323 21.2398C169.099 22.4199 168.987 23.6369 168.987 24.8907V29.9062C168.987 30.7913 169.099 31.4674 169.323 31.9345C169.573 32.377 169.835 32.7212 170.109 32.9671C170.384 33.1884 170.633 33.3482 170.858 33.4465C171.107 33.5448 171.232 33.6555 171.232 33.7784C171.232 33.9013 171.17 33.9628 171.045 33.9628H162.25C162.126 33.9628 162.063 33.9013 162.063 33.7784C162.063 33.6555 162.176 33.5448 162.4 33.4465C162.65 33.3482 162.912 33.1884 163.186 32.9671C163.46 32.7212 163.71 32.377 163.934 31.9345C164.184 31.4674 164.309 30.7913 164.309 29.9062V14.5279C164.309 13.6428 164.246 12.9544 164.122 12.4627C163.997 11.9464 163.835 11.5653 163.635 11.3195C163.435 11.049 163.211 10.8769 162.961 10.8032C162.737 10.7294 162.525 10.6926 162.325 10.6926C162.151 10.6926 162.063 10.6188 162.063 10.4713C162.063 10.3729 162.138 10.2869 162.288 10.2131L168.425 6.85721Z" fill="#E63157"/>
<path d="M158.476 13.6805H160.834C161.258 13.6805 161.47 13.8895 161.47 14.3074C161.47 14.75 161.258 14.9712 160.834 14.9712H158.476V25.8503C158.476 27.2517 158.564 28.3827 158.738 29.2432C158.938 30.1037 159.187 30.792 159.487 31.3083C159.786 31.8001 160.098 32.1565 160.422 32.3778C160.747 32.5991 161.059 32.7589 161.358 32.8572C161.657 32.931 161.894 33.0047 162.069 33.0785C162.269 33.1277 162.368 33.2383 162.368 33.4104C162.368 33.5579 162.269 33.6931 162.069 33.8161C161.894 33.9144 161.408 33.9636 160.609 33.9636C159.088 33.9636 157.878 33.7054 156.979 33.1891C156.081 32.6728 155.395 32.0213 154.921 31.2346C154.447 30.4233 154.135 29.5382 153.986 28.5793C153.861 27.5959 153.798 26.6371 153.798 25.7028V14.9712H152.489C152.239 14.9712 152.052 14.8975 151.927 14.75C151.802 14.5779 151.74 14.3935 151.74 14.1968C151.74 14.0001 151.802 13.8157 151.927 13.6436C152.052 13.4715 152.214 13.324 152.414 13.2011L157.69 9.55011C157.865 9.42719 158.015 9.36572 158.139 9.36572C158.364 9.36572 158.476 9.51324 158.476 9.80826V13.6805Z" fill="#E63157"/>
<path d="M145.427 30.7918C144.953 31.8244 144.229 32.6603 143.256 33.2996C142.308 33.9142 141.048 34.2215 139.477 34.2215C138.728 34.2215 137.955 34.1355 137.156 33.9634C136.358 33.7667 135.634 33.4594 134.986 33.0414C134.337 32.6234 133.801 32.0703 133.377 31.3819C132.977 30.6935 132.778 29.8576 132.778 28.8741C132.778 27.694 133.065 26.7352 133.639 25.9976C134.237 25.2355 134.973 24.6208 135.846 24.1537C136.745 23.662 137.718 23.2686 138.765 22.9736C139.838 22.6786 140.836 22.4081 141.759 22.1623C142.707 21.9164 143.518 21.646 144.192 21.351C144.865 21.0559 145.265 20.6626 145.389 20.1709C145.315 18.4253 145.028 17.0977 144.529 16.188C144.03 15.2537 143.082 14.7866 141.685 14.7866C140.911 14.7866 140.3 14.9218 139.851 15.1923C139.427 15.4627 139.09 15.8069 138.84 16.2249C138.616 16.6428 138.441 17.0854 138.316 17.5525C138.192 18.0196 138.042 18.4622 137.867 18.8801C137.693 19.2981 137.443 19.6423 137.119 19.9127C136.819 20.1832 136.383 20.3184 135.809 20.3184C135.086 20.3184 134.524 20.0848 134.125 19.6177C133.751 19.1506 133.564 18.5605 133.564 17.8475C133.564 17.0362 133.801 16.3478 134.275 15.7823C134.749 15.2169 135.36 14.762 136.108 14.4178C136.882 14.0736 137.743 13.8278 138.691 13.6803C139.664 13.5082 140.637 13.4221 141.61 13.4221C143.132 13.4221 144.429 13.6188 145.502 14.0122C146.575 14.4055 147.448 14.971 148.121 15.7086C148.82 16.4461 149.319 17.3558 149.618 18.4376C149.943 19.4948 150.105 20.7117 150.105 22.0885V29.9067C150.105 30.7918 150.217 31.4679 150.442 31.9351C150.691 32.3776 150.953 32.7218 151.227 32.9676C151.502 33.1889 151.751 33.3487 151.976 33.4471C152.225 33.5454 152.35 33.656 152.35 33.779C152.35 33.9019 152.288 33.9634 152.163 33.9634H145.988C145.614 33.9634 145.427 33.779 145.427 33.4102V30.7918ZM145.427 21.2772C145.127 21.646 144.716 21.9779 144.192 22.2729C143.693 22.5434 143.157 22.8138 142.583 23.0842C142.009 23.3301 141.41 23.6005 140.786 23.8956C140.188 24.1906 139.651 24.5594 139.177 25.0019C138.703 25.4199 138.304 25.9362 137.98 26.5508C137.68 27.1409 137.531 27.8784 137.531 28.7635C137.531 30.0174 137.83 31.0131 138.429 31.7507C139.052 32.4882 139.951 32.857 141.123 32.857C142.495 32.857 143.556 32.3653 144.304 31.3819C145.053 30.3739 145.427 28.9971 145.427 27.2515V21.2772Z" fill="#E63157"/>
<path d="M122.892 34.2215C121.919 34.2215 120.896 34.1109 119.823 33.8896C118.75 33.6683 117.765 33.3241 116.866 32.857C115.993 32.3653 115.257 31.7507 114.658 31.0131C114.085 30.2509 113.798 29.3413 113.798 28.2841C113.798 27.4728 113.972 26.8335 114.322 26.3664C114.696 25.8993 115.245 25.6657 115.968 25.6657C116.617 25.6657 117.091 25.8501 117.39 26.2189C117.69 26.5631 117.927 27.0056 118.101 27.5465C118.276 28.0628 118.426 28.6406 118.55 29.2798C118.7 29.8945 118.937 30.4722 119.261 31.0131C119.586 31.5294 120.035 31.9719 120.609 32.3407C121.207 32.6849 122.043 32.857 123.116 32.857C123.84 32.857 124.451 32.771 124.95 32.5989C125.474 32.4268 125.898 32.2178 126.222 31.9719C126.547 31.7015 126.784 31.4065 126.933 31.0869C127.108 30.7672 127.195 30.4476 127.195 30.128C127.195 29.4642 126.883 28.8619 126.26 28.321C125.636 27.7801 124.862 27.2638 123.939 26.7721C123.016 26.2804 122.006 25.7764 120.908 25.2601C119.835 24.7438 118.837 24.166 117.914 23.5268C116.991 22.8876 116.218 22.1746 115.594 21.3878C114.97 20.5765 114.658 19.63 114.658 18.5482C114.658 17.6877 114.87 16.9379 115.295 16.2986C115.719 15.6348 116.293 15.0939 117.016 14.676C117.74 14.258 118.575 13.9507 119.523 13.754C120.471 13.5328 121.457 13.4221 122.48 13.4221C123.403 13.4221 124.339 13.5205 125.287 13.7171C126.26 13.8892 127.133 14.1843 127.906 14.6022C128.705 14.9956 129.353 15.5242 129.852 16.188C130.351 16.8272 130.601 17.614 130.601 18.5482C130.601 19.3349 130.414 19.9865 130.039 20.5028C129.665 20.9945 129.116 21.2403 128.393 21.2403C127.819 21.2403 127.382 21.0805 127.083 20.7609C126.784 20.4413 126.547 20.0479 126.372 19.5808C126.222 19.0891 126.072 18.5728 125.923 18.0319C125.798 17.4664 125.611 16.9501 125.361 16.483C125.112 15.9913 124.763 15.5856 124.314 15.266C123.865 14.9464 123.241 14.7866 122.442 14.7866C121.869 14.7866 121.382 14.8727 120.983 15.0448C120.609 15.1923 120.297 15.389 120.047 15.6348C119.823 15.8807 119.661 16.1511 119.561 16.4461C119.461 16.7166 119.411 16.9747 119.411 17.2206C119.411 17.9336 119.723 18.5728 120.347 19.1383C120.97 19.7037 121.744 20.2446 122.667 20.7609C123.59 21.2772 124.588 21.8058 125.661 22.3467C126.759 22.863 127.769 23.4284 128.692 24.0431C129.615 24.6577 130.389 25.3584 131.012 26.1452C131.636 26.9319 131.948 27.8416 131.948 28.8741C131.948 29.7838 131.686 30.5828 131.162 31.2712C130.663 31.9351 129.989 32.4882 129.141 32.9308C128.293 33.3733 127.32 33.7052 126.222 33.9265C125.149 34.1232 124.039 34.2215 122.892 34.2215Z" fill="#E63157"/>
<path d="M99.0928 13.4959C99.1926 13.4467 99.2924 13.4221 99.3922 13.4221C99.5669 13.4221 99.6542 13.5328 99.6542 13.754V19.4333C99.8538 18.5974 100.116 17.8229 100.44 17.11C100.789 16.3724 101.201 15.7332 101.675 15.1923C102.149 14.6514 102.698 14.2212 103.322 13.9015C103.97 13.5819 104.706 13.4221 105.53 13.4221C106.278 13.4221 107.002 13.5696 107.7 13.8647C108.424 14.1351 109.06 14.5653 109.609 15.1554C110.183 15.7455 110.632 16.4953 110.956 17.405C111.305 18.3146 111.48 19.3964 111.48 20.6503V29.9067C111.48 30.7918 111.592 31.4679 111.817 31.9351C112.066 32.3776 112.328 32.7218 112.603 32.9676C112.877 33.1889 113.127 33.3487 113.351 33.4471C113.601 33.5454 113.725 33.656 113.725 33.779C113.725 33.9019 113.663 33.9634 113.538 33.9634H104.744C104.619 33.9634 104.557 33.9019 104.557 33.779C104.557 33.656 104.669 33.5454 104.893 33.4471C105.143 33.3487 105.405 33.1889 105.679 32.9676C105.954 32.7218 106.203 32.3776 106.428 31.9351C106.677 31.4679 106.802 30.7918 106.802 29.9067V19.6546C106.802 19.0153 106.765 18.413 106.69 17.8475C106.64 17.2821 106.528 16.7781 106.353 16.3355C106.203 15.893 105.966 15.5488 105.642 15.3029C105.343 15.0325 104.943 14.8973 104.444 14.8973C103.696 14.8973 103.022 15.1923 102.424 15.7823C101.85 16.3478 101.351 17.0977 100.927 18.0319C100.527 18.9662 100.216 20.0356 99.991 21.2403C99.7664 22.4204 99.6542 23.6374 99.6542 24.8913V29.9067C99.6542 30.7918 99.7664 31.4679 99.991 31.9351C100.24 32.3776 100.502 32.7218 100.777 32.9676C101.051 33.1889 101.301 33.3487 101.525 33.4471C101.775 33.5454 101.9 33.656 101.9 33.779C101.9 33.9019 101.837 33.9634 101.712 33.9634H92.918C92.7932 33.9634 92.7309 33.9019 92.7309 33.779C92.7309 33.656 92.8431 33.5454 93.0677 33.4471C93.3172 33.3487 93.5791 33.1889 93.8536 32.9676C94.128 32.7218 94.3775 32.3776 94.602 31.9351C94.8515 31.4679 94.9763 30.7918 94.9763 29.9067V21.1666C94.9763 20.2815 94.9139 19.5931 94.7891 19.1014C94.6644 18.5851 94.5022 18.204 94.3026 17.9582C94.1031 17.6877 93.8785 17.5156 93.629 17.4419C93.4045 17.3681 93.1924 17.3312 92.9928 17.3312C92.8182 17.3312 92.7309 17.2575 92.7309 17.11C92.7309 17.0116 92.8057 16.9256 92.9554 16.8518L99.0928 13.4959Z" fill="#E63157"/>
<path d="M86.1539 30.7918C85.6799 31.8244 84.9564 32.6603 83.9834 33.2996C83.0353 33.9142 81.7754 34.2215 80.2036 34.2215C79.4552 34.2215 78.6817 34.1355 77.8834 33.9634C77.085 33.7667 76.3615 33.4594 75.7128 33.0414C75.0642 32.6234 74.5278 32.0703 74.1036 31.3819C73.7044 30.6935 73.5049 29.8576 73.5049 28.8741C73.5049 27.694 73.7918 26.7352 74.3656 25.9976C74.9644 25.2355 75.7004 24.6208 76.5736 24.1537C77.4717 23.662 78.4447 23.2686 79.4926 22.9736C80.5654 22.6786 81.5633 22.4081 82.4864 22.1623C83.4345 21.9164 84.2453 21.646 84.919 21.351C85.5926 21.0559 85.9918 20.6626 86.1165 20.1709C86.0417 18.4253 85.7547 17.0977 85.2558 16.188C84.7568 15.2537 83.8087 14.7866 82.4116 14.7866C81.6382 14.7866 81.0269 14.9218 80.5779 15.1923C80.1537 15.4627 79.8169 15.8069 79.5674 16.2249C79.3429 16.6428 79.1682 17.0854 79.0435 17.5525C78.9188 18.0196 78.7691 18.4622 78.5944 18.8801C78.4198 19.2981 78.1703 19.6423 77.846 19.9127C77.5466 20.1832 77.11 20.3184 76.5361 20.3184C75.8126 20.3184 75.2513 20.0848 74.8521 19.6177C74.4779 19.1506 74.2907 18.5605 74.2907 17.8475C74.2907 17.0362 74.5278 16.3478 75.0018 15.7823C75.4758 15.2169 76.0871 14.762 76.8355 14.4178C77.6089 14.0736 78.4697 13.8278 79.4177 13.6803C80.3907 13.5082 81.3637 13.4221 82.3367 13.4221C83.8586 13.4221 85.156 13.6188 86.2288 14.0122C87.3016 14.4055 88.1748 14.971 88.8484 15.7086C89.547 16.4461 90.046 17.3558 90.3453 18.4376C90.6697 19.4948 90.8318 20.7117 90.8318 22.0885V29.9067C90.8318 30.7918 90.9441 31.4679 91.1686 31.9351C91.4181 32.3776 91.6801 32.7218 91.9545 32.9676C92.229 33.1889 92.4785 33.3487 92.703 33.4471C92.9525 33.5454 93.0772 33.656 93.0772 33.779C93.0772 33.9019 93.0149 33.9634 92.8901 33.9634H86.7153C86.341 33.9634 86.1539 33.779 86.1539 33.4102V30.7918ZM86.1539 21.2772C85.8545 21.646 85.4429 21.9779 84.919 22.2729C84.42 22.5434 83.8836 22.8138 83.3098 23.0842C82.7359 23.3301 82.1372 23.6005 81.5134 23.8956C80.9147 24.1906 80.3783 24.5594 79.9042 25.0019C79.4302 25.4199 79.031 25.9362 78.7067 26.5508C78.4073 27.1409 78.2576 27.8784 78.2576 28.7635C78.2576 30.0174 78.557 31.0131 79.1558 31.7507C79.7795 32.4882 80.6777 32.857 81.8502 32.857C83.2224 32.857 84.2828 32.3653 85.0312 31.3819C85.7797 30.3739 86.1539 28.9971 86.1539 27.2515V21.2772Z" fill="#E63157"/>
<path d="M58.2765 17.7368C57.9771 16.9255 57.6403 16.2862 57.2661 15.8191C56.9168 15.352 56.58 14.9955 56.2557 14.7496C55.9563 14.5038 55.6943 14.3317 55.4698 14.2334C55.2702 14.1104 55.1704 13.9875 55.1704 13.8646C55.1704 13.7416 55.2328 13.6802 55.3575 13.6802H64.4514C64.5761 13.6802 64.6385 13.7416 64.6385 13.8646C64.6385 13.9875 64.5013 14.1104 64.2268 14.2334C63.9773 14.3317 63.7278 14.5038 63.4784 14.7496C63.2289 14.9709 63.0417 15.3151 62.917 15.7822C62.8172 16.2494 62.9295 16.9009 63.2538 17.7368L66.6968 26.8458L70.1771 17.6999C70.5015 16.864 70.6137 16.2248 70.5139 15.7822C70.4391 15.3151 70.2894 14.9586 70.0649 14.7128C69.8403 14.4669 69.6033 14.2948 69.3538 14.1965C69.1043 14.0981 68.9796 13.9875 68.9796 13.8646C68.9796 13.7416 69.042 13.6802 69.1667 13.6802H74.6679C74.7927 13.6802 74.855 13.7416 74.855 13.8646C74.855 13.9875 74.7428 14.1104 74.5182 14.2334C74.2937 14.3317 74.0068 14.5038 73.6575 14.7496C73.3332 14.9709 72.9839 15.3151 72.6096 15.7822C72.2354 16.2248 71.8861 16.864 71.5618 17.6999L65.3495 33.9264C65.2747 34.1231 65.125 34.2214 64.9004 34.2214C64.6759 34.2214 64.5262 34.1231 64.4514 33.9264L58.2765 17.7368Z" fill="#E63157"/>
<path d="M56.8397 27.5096C56.8397 27.8047 56.7025 28.321 56.428 29.0585C56.1786 29.7715 55.7295 30.5214 55.0808 31.3081C54.4321 32.0703 53.5589 32.7464 52.4612 33.3364C51.3634 33.9265 49.9788 34.2215 48.3072 34.2215C46.9101 34.2215 45.6252 33.9757 44.4526 33.4839C43.28 32.9676 42.2696 32.2547 41.4213 31.345C40.598 30.4353 39.9493 29.3413 39.4753 28.0628C39.0013 26.7844 38.7643 25.3707 38.7643 23.8218C38.7643 22.2729 38.9763 20.8593 39.4004 19.5808C39.8246 18.3024 40.4234 17.2083 41.1968 16.2986C41.9951 15.389 42.9557 14.6883 44.0784 14.1966C45.2011 13.6803 46.4485 13.4221 47.8207 13.4221C49.1679 13.4221 50.3655 13.6557 51.4133 14.1228C52.4861 14.5653 53.3968 15.1923 54.1452 16.0036C54.8937 16.7903 55.4675 17.7246 55.8667 18.8064C56.2659 19.8881 56.4655 21.0436 56.4655 22.2729C56.4655 22.7401 56.4031 23.1211 56.2784 23.4162C56.1786 23.6866 55.9041 23.8218 55.455 23.8218H43.517C43.517 25.174 43.6667 26.3418 43.9661 27.3253C44.2904 28.3087 44.7146 29.12 45.2385 29.7592C45.7874 30.3739 46.436 30.8287 47.1845 31.1237C47.933 31.4188 48.7438 31.5663 49.617 31.5663C50.8146 31.5663 51.8125 31.3327 52.6109 30.8656C53.4342 30.3985 54.1078 29.8945 54.6317 29.3536C55.1806 28.7881 55.6047 28.2841 55.9041 27.8416C56.2035 27.3744 56.4405 27.1409 56.6152 27.1409C56.7649 27.1409 56.8397 27.2638 56.8397 27.5096ZM51.6753 22.5311C51.7002 21.351 51.6254 20.2938 51.4507 19.3595C51.2761 18.4007 51.0141 17.5894 50.6649 16.9256C50.3405 16.2372 49.9289 15.7086 49.4299 15.3398C48.9559 14.971 48.4195 14.7866 47.8207 14.7866C46.5982 14.7866 45.6127 15.4873 44.8642 16.8887C44.1158 18.2901 43.6792 20.1709 43.5544 22.5311H51.6753Z" fill="#E63157"/>
<path d="M38.0081 27.5096C38.0081 27.8047 37.8709 28.321 37.5964 29.0585C37.3469 29.7715 36.8978 30.5214 36.2492 31.3081C35.6005 32.0703 34.7273 32.7464 33.6295 33.3364C32.5318 33.9265 31.1471 34.2215 29.4756 34.2215C28.0784 34.2215 26.7936 33.9757 25.621 33.4839C24.4484 32.9676 23.4379 32.2547 22.5897 31.345C21.7664 30.4353 21.1177 29.3413 20.6437 28.0628C20.1696 26.7844 19.9326 25.3707 19.9326 23.8218C19.9326 22.2729 20.1447 20.8593 20.5688 19.5808C20.9929 18.3024 21.5917 17.2083 22.3651 16.2986C23.1635 15.389 24.124 14.6883 25.2467 14.1966C26.3694 13.6803 27.6169 13.4221 28.9891 13.4221C30.3363 13.4221 31.5338 13.6557 32.5817 14.1228C33.6545 14.5653 34.5651 15.1923 35.3136 16.0036C36.0621 16.7903 36.6359 17.7246 37.0351 18.8064C37.4342 19.8881 37.6338 21.0436 37.6338 22.2729C37.6338 22.7401 37.5715 23.1211 37.4467 23.4162C37.3469 23.6866 37.0725 23.8218 36.6234 23.8218H24.6854C24.6854 25.174 24.8351 26.3418 25.1345 27.3253C25.4588 28.3087 25.8829 29.12 26.4068 29.7592C26.9557 30.3739 27.6044 30.8287 28.3529 31.1237C29.1013 31.4188 29.9122 31.5663 30.7854 31.5663C31.9829 31.5663 32.9809 31.3327 33.7792 30.8656C34.6026 30.3985 35.2762 29.8945 35.8001 29.3536C36.349 28.7881 36.7731 28.2841 37.0725 27.8416C37.3719 27.3744 37.6089 27.1409 37.7835 27.1409C37.9332 27.1409 38.0081 27.2638 38.0081 27.5096ZM32.8437 22.5311C32.8686 21.351 32.7938 20.2938 32.6191 19.3595C32.4445 18.4007 32.1825 17.5894 31.8332 16.9256C31.5089 16.2372 31.0972 15.7086 30.5983 15.3398C30.1242 14.971 29.5878 14.7866 28.9891 14.7866C27.7666 14.7866 26.7811 15.4873 26.0326 16.8887C25.2841 18.2901 24.8475 20.1709 24.7228 22.5311H32.8437Z" fill="#E63157"/>
<path d="M18.9034 9.87231C19.0276 9.87255 19.0899 9.9342 19.0899 10.0569C19.0896 10.1796 18.9649 10.2907 18.7159 10.3889C18.4915 10.4872 18.242 10.659 17.9678 10.9045C17.6934 11.1258 17.4312 11.4706 17.1817 11.9377C16.9572 12.3803 16.8448 13.044 16.8448 13.929V27.5002C16.8448 28.1035 16.8208 28.6796 16.7794 29.2288H16.7842C16.925 34.344 12.7319 36.2923 9.50201 36.8176C6.33251 37.4269 3.77173 36.5112 1.5274 34.053C-1.37205 30.8769 0.400043 27.3849 2.36529 27.4319C4.55977 27.4846 4.83105 28.8194 5.12994 31.676C5.30915 33.3888 5.94121 34.4486 6.9942 35.0432C10.6021 36.1578 11.673 32.1875 11.9366 30.0393C11.9636 29.4859 11.9795 28.8977 11.9796 28.2747V13.929C11.9796 13.0442 11.8548 12.3803 11.6055 11.9377C11.3561 11.4708 11.0815 11.1258 10.7823 10.9045C10.5081 10.6589 10.2455 10.4873 9.99615 10.3889C9.74698 10.2907 9.62242 10.1796 9.62213 10.0569C9.62213 9.93396 9.68489 9.87231 9.80963 9.87231H18.9034Z" fill="#E63157"/>
<path d="M190.486 5.55141C189.47 8.01569 187.444 9.94439 184.058 12.0508C180.671 9.94439 178.645 8.01569 177.629 5.55141C177.197 4.50391 176.989 3.36535 177.259 2.31398C177.528 1.2626 178.445 0.268868 179.711 0.0464386C181.102 -0.198157 182.534 0.554675 183.258 1.5715C183.706 2.19999 183.936 2.90718 184.058 3.63471C184.179 2.9072 184.409 2.19999 184.857 1.5715C185.581 0.554675 187.013 -0.198157 188.404 0.0464386C189.67 0.268868 190.587 1.2626 190.856 2.31398C191.126 3.36533 190.918 4.50391 190.486 5.55141Z" fill="#E63157"/>
</svg>
