<svg width="96" height="56" viewBox="0 0 96 56" fill="none" xmlns="http://www.w3.org/2000/svg">
<path fill-rule="evenodd" clip-rule="evenodd" d="M65.9902 35.8029C68.9957 35.8029 71.2819 36.4243 72.8489 37.6672C74.4158 38.9101 75.1993 40.7744 75.1993 43.2602V49.9789C75.1993 50.9888 75.6617 51.4937 76.5864 51.4937C76.7067 51.4937 76.837 51.4866 76.9772 51.4725C77.3321 51.4366 77.6487 51.6975 77.6843 52.0552C77.6889 52.1015 77.6885 52.1482 77.6832 52.1944L77.3361 55.2375C77.3027 55.53 77.0787 55.7634 76.7897 55.8069C75.9334 55.9356 75.2235 56 74.6598 56C71.8855 56 70.2287 55.0031 69.6892 53.0092C68.5333 55.0031 66.2471 56 62.8306 56C60.904 56 59.4269 55.5857 58.3994 54.7571C57.3719 53.9285 56.8582 52.7244 56.8582 51.1449C56.8582 49.4877 57.4425 48.1477 58.6114 47.1249C59.7802 46.1021 61.7003 45.3188 64.3719 44.775L68.7259 43.9205V43.2214C68.7259 42.341 68.4819 41.6419 67.9938 41.124C67.5058 40.6061 66.8379 40.3472 65.9902 40.3472C65.014 40.3472 64.2177 40.5802 63.6012 41.0463C63.259 41.3051 62.9257 41.878 62.6012 42.7651C62.484 43.0856 62.1409 43.2602 61.8153 43.1651L57.7712 41.9835C57.4286 41.8834 57.2314 41.5224 57.3308 41.1772C57.3374 41.154 57.3454 41.1312 57.3546 41.1088C58.1222 39.2465 58.9586 38.0021 59.8636 37.3759C61.3792 36.3272 63.4214 35.8029 65.9902 35.8029ZM40.799 22.581V39.9199C41.3642 38.6252 42.1669 37.6478 43.2073 36.9875C44.2476 36.3272 45.4742 35.997 46.8871 35.997C48.9164 35.997 50.5347 36.5926 51.7421 37.7837C52.9494 38.9748 53.5531 40.6708 53.5531 42.8718V55.1549C53.5531 55.5144 53.2639 55.8057 52.9072 55.8057H47.6485C47.2918 55.8057 47.0027 55.5144 47.0027 55.1549V44.6973C47.0027 42.2374 46.0907 41.0075 44.2669 41.0075C43.2394 41.0075 42.4045 41.3829 41.7623 42.1338C41.1201 42.8848 40.799 44.037 40.799 45.5907V55.1538C40.799 55.5132 40.5099 55.8046 40.1531 55.8046H40.152L34.5544 55.7947C34.1982 55.7941 33.9097 55.5029 33.9097 55.1439V26.5134C38.5026 23.1524 40.799 21.8416 40.799 22.581ZM86.4298 36.3854C86.7865 36.3854 87.0757 36.6768 87.0757 37.0363V55.1549C87.0757 55.5144 86.7865 55.8057 86.4298 55.8057H81.1712C80.8145 55.8057 80.5253 55.5144 80.5253 55.1549V37.0363C80.5253 36.6768 80.8145 36.3854 81.1712 36.3854H86.4298ZM68.7259 47.2997L65.6049 48.0376C64.7829 48.2448 64.1985 48.4973 63.8517 48.795C63.5049 49.0928 63.3315 49.5136 63.3315 50.0574C63.3315 50.6011 63.4985 51.0154 63.8324 51.3003C64.1664 51.5851 64.6287 51.7275 65.2196 51.7275C66.1186 51.7275 66.9278 51.475 67.6471 50.9701C68.3663 50.4652 68.7259 49.7984 68.7259 48.9698V47.2997ZM93.1983 18.1543L94.3154 19.0009C94.512 19.1499 94.5524 19.4309 94.4058 19.63L84.6663 32.8595C84.519 33.0595 84.2387 33.1014 84.0401 32.953C84.0354 32.9495 84.0307 32.9459 84.0262 32.9421L77.7404 27.8453C77.5689 27.7062 77.5232 27.462 77.6328 27.2695L79.6092 23.7987C79.7322 23.5827 80.0058 23.508 80.2202 23.632C80.2286 23.6368 80.2369 23.642 80.245 23.6474L83.344 25.7199C83.5104 25.8311 83.7298 25.8179 83.8818 25.6874L92.639 18.1714C92.7985 18.0345 93.0309 18.0274 93.1983 18.1543Z" fill="#263838"/>
<path fill-rule="evenodd" clip-rule="evenodd" d="M85.5502 24.1036C86.3802 23.4315 88.9961 20.6848 93.3979 15.8637C93.5492 15.6979 93.7987 15.6701 93.9824 15.7984L95.8074 17.0739C96.0106 17.2159 96.061 17.4969 95.9201 17.7016C95.9174 17.7055 95.9147 17.7094 95.9118 17.7132L84.504 33.2088C84.3567 33.4089 84.0763 33.4507 83.8778 33.3023C83.8731 33.2988 83.8684 33.2952 83.8638 33.2915L76.444 27.275C76.2724 27.1359 76.2268 26.8917 76.3364 26.6992L78.7053 22.539C78.8283 22.323 79.1019 22.2483 79.3163 22.3723C79.3247 22.3771 79.333 22.3823 79.3411 22.3877L81.7661 24.0094C83.219 25.0405 84.4804 25.0719 85.5502 24.1036Z" fill="#009688"/>
<path fill-rule="evenodd" clip-rule="evenodd" d="M83.3379 25.0612C86.167 27.0265 88.6449 26.9047 90.7714 24.696L84.5038 33.2094C84.3566 33.4095 84.0762 33.4513 83.8777 33.3029C83.8729 33.2994 83.8683 33.2958 83.8637 33.2921L76.4439 27.2756C76.2723 27.1365 76.2266 26.8923 76.3363 26.6998L78.7034 22.5428C78.8264 22.3267 79.1 22.2521 79.3144 22.3761C79.3237 22.3815 79.3329 22.3872 79.3418 22.3933C80.9783 23.5046 82.3103 24.3939 83.3379 25.0612Z" fill="#26A69A"/>
<path fill-rule="evenodd" clip-rule="evenodd" d="M29.912 0C37.6849 0 43.9861 6.3517 43.9861 14.1869C43.9861 22.0221 37.6849 28.3738 29.912 28.3738C22.1391 28.3738 15.8379 22.0221 15.8379 14.1869C15.8379 6.3517 22.1391 0 29.912 0ZM57.0278 0C59.8553 0 62.0076 0.536798 63.4847 1.61041C64.9619 2.68402 65.7005 4.24967 65.7005 6.30743C65.7005 9.71997 63.591 12.9609 58.9487 13.5543C64.286 14.3621 66.8416 17.446 66.8416 21.3571C66.8416 23.6193 66.0714 25.3543 64.5308 26.5621C62.9902 27.7699 60.7809 28.3738 57.9027 28.3738H48.1071C47.7504 28.3738 47.4612 28.0824 47.4612 27.723V0.650818C47.4612 0.291381 47.7504 0 48.1071 0H57.0278ZM11.9798 0C12.3365 0 12.6257 0.291381 12.6257 0.650818V20.178C12.7751 26.6687 8.75422 29.24 0.563076 27.892C0.25181 27.8408 0.0227729 27.5705 0.021293 27.2527L7.26146e-06 22.6823C-0.0016663 22.3228 0.286153 22.0301 0.642869 22.0284C0.652794 22.0283 0.662719 22.0285 0.672636 22.0289C2.3194 22.0977 3.43792 22.0873 4.0282 21.9978C5.02984 21.8459 5.76044 21.2982 6.00029 20.9091C6.46344 20.1648 6.5406 19.5899 6.5406 17.9604V0.650818C6.5406 0.291381 6.82977 0 7.18649 0H11.9798ZM54.5432 16.6001H54.2258C53.869 16.6001 53.5799 16.8915 53.5799 17.2509V23.3291C53.5799 23.6886 53.869 23.9799 54.2258 23.9799H54.6395C56.716 23.9799 58.1476 23.7561 58.9343 23.3083C59.721 22.8606 60.1143 22.0433 60.1143 20.8565C60.1143 19.6373 59.5872 18.6231 58.5329 17.8139C57.4786 17.0047 56.1487 16.6001 54.5432 16.6001ZM29.912 7.08003C26.0182 7.08003 22.8616 10.2619 22.8616 14.1869C22.8616 18.1119 26.0182 21.2938 29.912 21.2938C33.8058 21.2938 36.9624 18.1119 36.9624 14.1869C36.9624 10.2619 33.8058 7.08003 29.912 7.08003ZM54.2283 4.43058C53.8716 4.42915 53.5813 4.71938 53.5799 5.07881V10.468C53.5799 10.8274 53.869 11.1188 54.2258 11.1188H54.7519C56.1434 11.1188 57.2485 10.7735 58.0673 10.083C58.8861 9.39249 59.2955 8.45384 59.2955 7.26701C59.2955 6.1665 58.9664 5.41935 58.3081 5.02554C57.5145 4.63659 56.1546 4.43827 54.2283 4.43058Z" fill="#26A69A"/>
</svg>
