<svg width="26" height="26" viewBox="0 0 26 26" fill="none" xmlns="http://www.w3.org/2000/svg">
<path d="M21.9873 10.47C21.9873 17.799 12.5642 24.0811 12.5642 24.0811C12.5642 24.0811 3.14111 17.799 3.14111 10.47C3.14111 7.9708 4.1339 5.574 5.90107 3.80683C7.66824 2.03966 10.065 1.04687 12.5642 1.04688C15.0633 1.04688 17.4601 2.03966 19.2273 3.80683C20.9945 5.574 21.9873 7.9708 21.9873 10.47Z" stroke="black" stroke-width="1.25641" stroke-linecap="round" stroke-linejoin="round"/>
<path d="M12.5641 13.6112C14.2989 13.6112 15.7051 12.2049 15.7051 10.4701C15.7051 8.73539 14.2989 7.3291 12.5641 7.3291C10.8294 7.3291 9.4231 8.73539 9.4231 10.4701C9.4231 12.2049 10.8294 13.6112 12.5641 13.6112Z" stroke="black" stroke-width="1.25641" stroke-linecap="round" stroke-linejoin="round"/>
</svg>
