<svg width="208" height="40" viewBox="0 0 208 40" fill="none" xmlns="http://www.w3.org/2000/svg">
<path d="M20.4592 40C31.7586 40 40.9185 31.0457 40.9185 20C40.9185 8.95431 31.7586 0 20.4592 0C9.15991 0 0 8.95431 0 20C0 31.0457 9.15991 40 20.4592 40Z" fill="#019529"/>
<path d="M26.6105 27.4047L26.5674 29.431L26.4328 35.2836V35.5099C16.3109 26.952 14.588 24.8626 14.2919 24.231C14.2919 24.231 14.2919 24.2257 14.2811 24.2099C14.2649 24.1626 14.2273 24.031 14.2542 23.8415V23.8363C14.2596 23.7942 14.2703 23.7468 14.2865 23.6994C14.2972 23.6626 14.308 23.631 14.3188 23.5889C14.4103 23.3363 14.5664 23.0784 14.7764 22.8152C14.9056 22.652 15.0564 22.4836 15.2287 22.3205C15.541 22.0099 15.9178 21.6994 16.3432 21.3889C16.537 21.2468 16.747 21.0994 16.9623 20.9573C17.3823 20.6784 17.8345 20.3994 18.303 20.1257C21.9318 23.4415 26.5459 27.3468 26.6105 27.4047Z" fill="url(#paint0_linear_338_1555)"/>
<path d="M26.7376 8.17969L26.6945 10.206L26.673 11.2218L26.6245 13.2481L26.603 14.2639L26.5599 16.2902C26.4899 16.3165 21.8758 18.0692 18.317 20.1376C17.8486 20.4113 17.3964 20.6902 16.9764 20.9692C16.761 21.1113 16.5564 21.2586 16.3572 21.4007C15.9319 21.7113 15.555 22.0218 15.2427 22.3323C15.0705 22.4955 14.9197 22.6639 14.7905 22.8271C14.4674 23.2271 14.279 23.6218 14.2467 23.9902L14.2844 22.3007V22.0271L14.2952 21.9428V21.9323L14.3275 20.8639L14.3867 18.7481L14.4136 17.7165L14.4728 15.6218C15.2051 12.6902 25.5316 8.64811 26.743 8.18495L26.7376 8.17969Z" fill="white"/>
<path d="M17.2227 10.4215C18.8998 10.4215 20.2593 9.09245 20.2593 7.45304C20.2593 5.81363 18.8998 4.48462 17.2227 4.48462C15.5457 4.48462 14.1862 5.81363 14.1862 7.45304C14.1862 9.09245 15.5457 10.4215 17.2227 10.4215Z" fill="white"/>
<path d="M64.4365 13.0999C65.7287 14.3947 66.3747 16.1999 66.3747 18.521V28.6105H61.9275V19.1105C61.9275 17.742 61.5776 16.6947 60.8777 15.9578C60.1777 15.221 59.2248 14.8578 58.0187 14.8578C56.8127 14.8578 55.8221 15.2262 55.1114 15.9578C54.4007 16.6947 54.0453 17.742 54.0453 19.1105V28.6105H49.5981V11.4105H54.0453V13.5526C54.6376 12.8052 55.3967 12.221 56.3174 11.7999C57.2381 11.3736 58.2503 11.1631 59.3486 11.1631C61.443 11.1631 63.1389 11.8105 64.4311 13.1052L64.4365 13.0999Z" fill="#265DF5"/>
<path d="M70.1033 15.3208C70.814 13.9735 71.7777 12.9419 72.9945 12.2156C74.2113 11.4892 75.5734 11.1313 77.0756 11.1313C78.3893 11.1313 79.536 11.3892 80.5213 11.905C81.5066 12.4208 82.2927 13.0735 82.8903 13.8629V11.4103H87.3698V28.6156H82.8903V26.0998C82.3196 26.905 81.5281 27.5735 80.5213 28.105C79.5145 28.6366 78.357 28.8945 77.0433 28.8945C75.5627 28.8945 74.2113 28.5208 72.9945 27.7787C71.7777 27.0314 70.814 25.984 70.1033 24.6261C69.3926 23.2682 69.0372 21.7103 69.0372 19.9524C69.0372 18.1945 69.3926 16.6735 70.1033 15.3261V15.3208ZM82.2496 17.2945C81.8243 16.5419 81.2536 15.9577 80.5321 15.5577C79.8106 15.1577 79.0407 14.9524 78.2116 14.9524C77.3824 14.9524 76.6233 15.1471 75.9234 15.5419C75.2235 15.9366 74.6581 16.5103 74.222 17.2629C73.7859 18.0208 73.5706 18.9156 73.5706 19.9471C73.5706 20.9787 73.7859 21.8892 74.222 22.6629C74.6581 23.4419 75.2288 24.0366 75.9395 24.4471C76.6502 24.8629 77.404 25.0682 78.2116 25.0682C79.0192 25.0682 79.8106 24.8682 80.5321 24.4629C81.2536 24.0577 81.8243 23.4787 82.2496 22.7261C82.6749 21.9682 82.8849 21.0629 82.8849 20.0103C82.8849 18.9577 82.6749 18.0471 82.2496 17.2945Z" fill="#265DF5"/>
<path d="M107.812 11.4104V28.6157H103.333V26.442C102.762 27.1893 102.014 27.7736 101.093 28.1946C100.172 28.6157 99.1709 28.8315 98.0887 28.8315C96.7104 28.8315 95.4936 28.5472 94.433 27.9788C93.3723 27.4104 92.5432 26.5736 91.9402 25.463C91.3372 24.3578 91.0356 23.0367 91.0356 21.5051V11.4157H95.4828V20.8841C95.4828 22.2525 95.8328 23.2999 96.5327 24.0367C97.2326 24.7736 98.1856 25.1367 99.3916 25.1367C100.598 25.1367 101.583 24.7683 102.283 24.0367C102.983 23.3051 103.333 22.2525 103.333 20.8841V11.4157H107.812V11.4104Z" fill="#265DF5"/>
<path d="M122.047 28.6096L116.076 21.2832V28.6096H111.629V5.63062H116.076V18.7043L121.982 11.4096H127.765L120.012 20.0411L127.824 28.6096H122.041H122.047Z" fill="#265DF5"/>
<path d="M136.352 11.9362C137.272 11.4204 138.328 11.1572 139.512 11.1572V15.7204H138.338C136.938 15.7204 135.889 16.0414 135.178 16.6835C134.467 17.3256 134.112 18.4414 134.112 20.0362V28.6046H129.665V11.4099H134.112V14.0783C134.683 13.1678 135.431 12.452 136.352 11.9362Z" fill="#265DF5"/>
<path d="M141.917 8.63123C141.4 8.14702 141.136 7.54175 141.136 6.81544C141.136 6.08912 141.395 5.48386 141.917 4.99965C142.434 4.51544 143.085 4.26807 143.871 4.26807C144.657 4.26807 145.303 4.51017 145.826 4.99965C146.343 5.48386 146.606 6.09438 146.606 6.81544C146.606 7.53649 146.348 8.14702 145.826 8.63123C145.309 9.11544 144.657 9.36281 143.871 9.36281C143.085 9.36281 142.434 9.1207 141.917 8.63123ZM146.063 11.4102V28.6154H141.615V11.4102H146.063Z" fill="#265DF5"/>
<path d="M160.334 11.8896C161.33 12.3949 162.111 13.0528 162.687 13.8633V11.4107H167.167V28.737C167.167 30.3317 166.838 31.7528 166.181 33.0054C165.524 34.258 164.539 35.2528 163.225 35.9844C161.912 36.7212 160.323 37.0844 158.461 37.0844C155.962 37.0844 153.911 36.5159 152.312 35.3738C150.713 34.237 149.808 32.6844 149.599 30.7159H154.013C154.245 31.5054 154.751 32.1265 155.521 32.5949C156.296 33.0633 157.233 33.2949 158.331 33.2949C159.624 33.2949 160.673 32.9159 161.476 32.1633C162.283 31.4054 162.682 30.2633 162.682 28.7317V26.0633C162.111 26.8686 161.32 27.5423 160.313 28.0791C159.306 28.6159 158.159 28.8844 156.867 28.8844C155.386 28.8844 154.03 28.5107 152.802 27.7686C151.574 27.0212 150.605 25.9738 149.895 24.6159C149.184 23.258 148.829 21.7002 148.829 19.9423C148.829 18.1844 149.184 16.6633 149.895 15.3159C150.605 13.9686 151.569 12.937 152.786 12.2107C154.003 11.4844 155.365 11.1265 156.867 11.1265C158.181 11.1265 159.333 11.3791 160.329 11.8896H160.334ZM162.052 17.2949C161.626 16.5423 161.056 15.958 160.334 15.558C159.613 15.158 158.843 14.9528 158.014 14.9528C157.185 14.9528 156.425 15.1475 155.726 15.5423C155.026 15.937 154.46 16.5107 154.024 17.2633C153.588 18.0212 153.373 18.9159 153.373 19.9475C153.373 20.9791 153.588 21.8896 154.024 22.6633C154.46 23.4423 155.031 24.037 155.742 24.4475C156.452 24.8633 157.206 25.0686 158.014 25.0686C158.821 25.0686 159.613 24.8686 160.334 24.4633C161.056 24.058 161.626 23.4791 162.052 22.7265C162.477 21.9686 162.687 21.0633 162.687 20.0107C162.687 18.958 162.477 18.0475 162.052 17.2949Z" fill="#019529"/>
<path d="M187.614 11.4104V28.6157H183.134V26.442C182.564 27.1893 181.815 27.7736 180.894 28.1946C179.974 28.6157 178.972 28.8315 177.89 28.8315C176.512 28.8315 175.295 28.5472 174.234 27.9788C173.174 27.4104 172.345 26.5736 171.742 25.463C171.139 24.3578 170.837 23.0367 170.837 21.5051V11.4157H175.284V20.8841C175.284 22.2525 175.634 23.2999 176.334 24.0367C177.034 24.7736 177.987 25.1367 179.193 25.1367C180.399 25.1367 181.384 24.7683 182.084 24.0367C182.784 23.3051 183.134 22.2525 183.134 20.8841V11.4157H187.614V11.4104Z" fill="#019529"/>
<path d="M195.865 5.63086V28.6098H191.418V5.63086H195.865Z" fill="#019529"/>
<path d="M208.001 14.9795H204.921V28.6111H200.409V14.9795H198.406V11.4111H200.409V10.5427C200.409 8.43216 201.023 6.87953 202.251 5.8848C203.478 4.89006 205.33 4.4269 207.812 4.49006V8.15322C206.73 8.13216 205.982 8.30585 205.556 8.67953C205.131 9.05322 204.921 9.7269 204.921 10.6953V11.4111H208.001V14.9795Z" fill="#019529"/>
<defs>
<linearGradient id="paint0_linear_338_1555" x1="24.5161" y1="30.4731" x2="12.8252" y2="16.6788" gradientUnits="userSpaceOnUse">
<stop stop-color="white"/>
<stop offset="1" stop-color="#019529"/>
</linearGradient>
</defs>
</svg>
