<svg width="200" height="28" viewBox="0 0 200 28" fill="none" xmlns="http://www.w3.org/2000/svg">
<path d="M44.1681 7.82794C43.4297 7.81996 42.6996 7.97157 42.0313 8.2708C41.4043 8.55008 40.8557 8.969 40.4308 9.49166V7.99949H37.2957V19.9966H40.4308V13.3697C40.4308 12.4161 40.6824 11.686 41.1815 11.1713C41.6807 10.6606 42.3655 10.4013 43.2318 10.4013C44.0815 10.4013 44.7539 10.6567 45.2448 11.1713C45.7357 11.686 45.9832 12.4161 45.9832 13.3697V19.9966H49.1183V12.9587C49.1183 11.3429 48.6646 10.0821 47.7529 9.18046C46.8412 8.27878 45.6491 7.82794 44.1723 7.82794H44.1681Z" fill="#265DF5"/>
<path d="M60.6316 9.71095C60.1902 9.14042 59.6209 8.67761 58.965 8.34646C58.272 7.98739 57.4593 7.80386 56.5353 7.80386C55.5205 7.79189 54.5263 8.05521 53.6601 8.56191C52.7855 9.08457 52.0801 9.83464 51.6222 10.7283C51.1231 11.6699 50.8715 12.7432 50.8715 13.952C50.8715 15.1609 51.1231 16.2661 51.6222 17.2117C52.0801 18.1133 52.7855 18.8714 53.6601 19.41C54.514 19.9287 55.504 20.2 56.5147 20.188C57.3686 20.204 58.2101 20.0165 58.965 19.6374C59.6292 19.3063 60.1984 18.8275 60.6316 18.241V19.9965H63.7873V8.00334H60.6316V9.71495V9.71095ZM60.1819 15.8951C59.9014 16.3978 59.4848 16.8167 58.9733 17.1039C58.4782 17.3832 57.9131 17.5269 57.3397 17.5269C56.7746 17.5269 56.2218 17.3792 55.7392 17.092C55.2276 16.7888 54.811 16.3619 54.5305 15.8472C54.2128 15.2647 54.0561 14.6104 54.0726 13.952C54.0726 13.2299 54.2252 12.6075 54.5305 12.0809C54.7367 11.7178 55.0172 11.3986 55.3555 11.1393C55.6938 10.8799 56.0774 10.6924 56.494 10.5807C56.9066 10.469 57.3397 10.4411 57.7646 10.4929C58.1895 10.5448 58.602 10.6805 58.9733 10.8879C59.4848 11.1752 59.9055 11.5941 60.1819 12.0968C60.4789 12.6235 60.6316 13.2538 60.6316 13.9919C60.6316 14.7301 60.4831 15.3604 60.1819 15.8951Z" fill="#265DF5"/>
<path d="M74.4385 14.6104C74.4385 15.564 74.191 16.2941 73.7001 16.8088C73.2092 17.3195 72.5285 17.5788 71.6622 17.5788C70.796 17.5788 70.1401 17.3235 69.6492 16.8088C69.1583 16.2981 68.9108 15.564 68.9108 14.6104V8.00342H65.7756V15.0453C65.7756 16.1146 65.9901 17.0362 66.415 17.8062C66.8069 18.5483 67.4216 19.1587 68.1723 19.5617C68.9644 19.9687 69.8513 20.1761 70.7464 20.1562C71.4766 20.1642 72.1985 20.0125 72.8626 19.7133C73.4855 19.438 74.0301 19.0191 74.4426 18.4885V20.0006H77.5983V8.0114H74.4426V14.6144L74.4385 14.6104Z" fill="#265DF5"/>
<path d="M90.9554 8.01108H86.8798L82.7175 13.098V3.98145H79.5824V20.0042H82.7175V14.8934L86.9252 20.0042H91.0008L85.4937 14.0276L90.9554 8.00709V8.01108Z" fill="#265DF5"/>
<path d="M95.5798 9.8703V7.99911H92.4447V20.0003H95.5798V14.0236C95.5798 12.9105 95.8314 12.1325 96.3306 11.6856C96.8297 11.2388 97.5723 11.0154 98.5582 11.0154H99.3914V7.83154C98.6283 7.81559 97.8693 7.99513 97.201 8.35021C96.5327 8.70929 95.9717 9.23194 95.5839 9.8703H95.5798Z" fill="#265DF5"/>
<path d="M103.987 8.00342H100.852V20.0046H103.987V8.00342Z" fill="#265DF5"/>
<path d="M102.419 6.57117C103.455 6.57117 104.292 5.76126 104.292 4.75983C104.292 3.75841 103.455 2.94849 102.419 2.94849C101.384 2.94849 100.546 3.75841 100.546 4.75983C100.546 5.76126 101.384 6.57117 102.419 6.57117Z" fill="#265DF5"/>
<path d="M14.4752 28C22.4697 28 28.9503 21.7321 28.9503 14C28.9503 6.26788 22.4697 0 14.4752 0C6.48063 0 0 6.26788 0 14C0 21.7321 6.48063 28 14.4752 28Z" fill="#265DF5"/>
<path d="M18.8272 19.1866L18.7942 20.607L18.6993 24.7044V24.864C11.5422 18.8714 10.3211 17.4112 10.1107 16.9683L10.1025 16.9524C10.0777 16.8686 10.0695 16.7808 10.086 16.693C10.0901 16.6611 10.0983 16.6292 10.1066 16.5973C10.1148 16.5733 10.1231 16.5494 10.1314 16.5215C10.2097 16.326 10.317 16.1424 10.4572 15.9789C10.5563 15.8552 10.6635 15.7395 10.779 15.6318C11.0265 15.3964 11.2905 15.1769 11.5669 14.9814C11.7072 14.8817 11.8515 14.7819 12.0042 14.6782C12.3012 14.4827 12.6188 14.2872 12.9488 14.0957C15.5188 16.4177 18.7859 19.1467 18.8272 19.1826V19.1866Z" fill="url(#paint0_linear_338_1681)"/>
<path d="M18.9221 5.72933L18.8891 7.15367L18.8726 7.85985L18.8396 9.27621L18.8231 9.98638L18.7901 11.4027C18.7406 11.4227 15.4735 12.6475 12.9572 14.0958C12.6271 14.2873 12.3054 14.4828 12.0125 14.6783C11.8599 14.7781 11.7155 14.8778 11.5752 14.9815C11.2947 15.181 11.0307 15.3965 10.7873 15.6319C10.6718 15.7396 10.5646 15.8553 10.4656 15.979C10.2387 16.2583 10.1025 16.5335 10.0819 16.7929L10.1108 15.6079V15.4164L10.1149 15.3486L10.1355 14.6025L10.1768 13.1223L10.1974 12.4002L10.2387 10.932C10.7543 8.88123 18.0641 6.0525 18.918 5.72534L18.9221 5.72933Z" fill="white"/>
<path d="M12.1816 7.29696C13.3696 7.29696 14.3308 6.36735 14.3308 5.2183C14.3308 4.06925 13.3696 3.13965 12.1816 3.13965C10.9935 3.13965 10.0323 4.06925 10.0323 5.2183C10.0323 6.36735 10.9935 7.29696 12.1816 7.29696Z" fill="white"/>
<path d="M195.136 20.3157C194.142 20.3157 193.243 20.1441 192.447 19.805C191.663 19.4499 191.044 18.9751 190.582 18.3807C190.12 17.7742 189.877 17.096 189.848 16.3539H192.562C192.608 16.8726 192.859 17.3114 193.321 17.6665C193.8 18.0096 194.39 18.1772 195.091 18.1772C195.792 18.1772 196.395 18.0455 196.795 17.7782C197.207 17.4949 197.418 17.1399 197.418 16.709C197.418 16.2502 197.187 15.907 196.729 15.6836C196.283 15.4602 195.57 15.2168 194.588 14.9495C193.635 14.6981 192.863 14.4508 192.265 14.2154C191.667 13.98 191.147 13.6129 190.702 13.1262C190.273 12.6354 190.058 11.9931 190.058 11.1912C190.058 10.5368 190.256 9.94636 190.656 9.41173C191.057 8.86115 191.622 8.43425 192.36 8.12305C193.111 7.81185 193.969 7.65625 194.938 7.65625C196.378 7.65625 197.537 8.01134 198.412 8.7255C199.303 9.42371 199.777 10.3812 199.839 11.5941H197.215C197.17 11.0435 196.939 10.6087 196.527 10.2815C196.11 9.95434 195.553 9.79076 194.848 9.79076C194.142 9.79076 193.627 9.91843 193.259 10.1698C192.892 10.4211 192.707 10.7563 192.707 11.1712C192.707 11.4984 192.83 11.7737 193.074 11.9931C193.321 12.2165 193.618 12.3921 193.973 12.5277C194.328 12.6474 194.848 12.803 195.537 12.9945C196.456 13.2299 197.207 13.4773 197.789 13.7286C198.387 13.964 198.903 14.3231 199.332 14.7979C199.761 15.2727 199.983 15.903 200 16.689C200 17.3872 199.802 18.0096 199.402 18.5602C199.002 19.1108 198.436 19.5377 197.698 19.8489C196.976 20.1601 196.126 20.3157 195.145 20.3157H195.136Z" fill="#F55D27"/>
<path d="M187.963 7.85555V20.116H185.339V18.6677C184.926 19.1705 184.382 19.5734 183.705 19.8687C183.045 20.1519 182.34 20.2916 181.589 20.2916C180.591 20.2916 179.696 20.0921 178.896 19.6891C178.112 19.2901 177.493 18.6957 177.031 17.9097C176.585 17.1237 176.363 16.1742 176.363 15.061V7.85156H178.962V14.682C178.962 15.7792 179.246 16.625 179.811 17.2195C180.381 17.798 181.152 18.0892 182.134 18.0892C183.116 18.0892 183.891 17.798 184.456 17.2195C185.038 16.625 185.331 15.7792 185.331 14.682V7.85156H187.954L187.963 7.85555Z" fill="#F55D27"/>
<path d="M164.396 9.6591C164.841 9.09655 165.448 8.62177 166.215 8.23476C166.982 7.84776 167.848 7.65625 168.814 7.65625C169.919 7.65625 170.922 7.92356 171.829 8.45819C172.749 8.97685 173.471 9.71097 173.991 10.6605C174.511 11.6101 174.775 12.6993 174.775 13.9321C174.775 15.1649 174.515 16.2701 173.991 17.2476C173.471 18.2131 172.749 18.9672 171.829 19.5177C170.926 20.0524 169.919 20.3197 168.814 20.3197C167.848 20.3197 166.99 20.1322 166.235 19.7651C165.485 19.3781 164.87 18.9033 164.396 18.3408V25.9492H161.772V7.85972H164.396V9.66309V9.6591ZM172.106 13.9321C172.106 13.0863 171.92 12.3602 171.553 11.7497C171.198 11.1273 170.724 10.6605 170.126 10.3493C169.544 10.0222 168.913 9.85859 168.24 9.85859C167.568 9.85859 166.953 10.0222 166.355 10.3493C165.773 10.6765 165.295 11.1513 164.928 11.7737C164.573 12.3961 164.4 13.1302 164.4 13.976C164.4 14.8218 164.577 15.5639 164.928 16.2023C165.295 16.8247 165.769 17.2995 166.355 17.6266C166.953 17.9538 167.58 18.1173 168.24 18.1173C168.9 18.1173 169.544 17.9538 170.126 17.6266C170.724 17.2835 171.198 16.7967 171.553 16.1584C171.92 15.52 172.106 14.7779 172.106 13.9321Z" fill="#F55D27"/>
<path d="M154.297 7.65625C155.296 7.65625 156.182 7.85573 156.966 8.2587C157.762 8.65767 158.385 9.25215 158.831 10.0381C159.293 10.8241 159.52 11.7737 159.52 12.8868V20.1202H156.921V13.2658C156.921 12.1686 156.636 11.3308 156.071 10.7523C155.502 10.1578 154.73 9.86258 153.749 9.86258C152.767 9.86258 151.983 10.1578 151.401 10.7523C150.832 11.3308 150.552 12.1686 150.552 13.2658V20.1202H147.953V13.2658C147.953 12.1686 147.668 11.3308 147.103 10.7523C146.534 10.1578 145.762 9.86258 144.781 9.86258C143.799 9.86258 143.015 10.1578 142.433 10.7523C141.864 11.3308 141.584 12.1686 141.584 13.2658V20.1202H138.96V7.85972H141.584V9.26013C142.013 8.75742 142.557 8.36243 143.217 8.07916C143.877 7.79589 144.583 7.65625 145.333 7.65625C146.344 7.65625 147.252 7.86372 148.048 8.27865C148.844 8.69358 149.458 9.29603 149.887 10.082C150.271 9.33992 150.869 8.75343 151.682 8.32254C152.495 7.87569 153.369 7.65625 154.306 7.65625H154.297Z" fill="#F55D27"/>
<path d="M123.569 13.9321C123.569 12.6993 123.829 11.6101 124.353 10.6605C124.889 9.71097 125.611 8.97685 126.515 8.45819C127.434 7.92356 128.449 7.65625 129.551 7.65625C130.549 7.65625 131.415 7.84776 132.15 8.23476C132.9 8.60581 133.498 9.07261 133.944 9.63516V7.85574H136.588V20.1162H133.944V18.2929C133.498 18.8714 132.892 19.3542 132.125 19.7412C131.357 20.1282 130.483 20.3197 129.501 20.3197C128.412 20.3197 127.414 20.0524 126.51 19.5177C125.607 18.9672 124.885 18.2131 124.349 17.2476C123.829 16.2701 123.565 15.1649 123.565 13.9321H123.569ZM133.944 13.976C133.944 13.1302 133.758 12.3961 133.391 11.7737C133.036 11.1513 132.57 10.6765 131.989 10.3493C131.407 10.0222 130.776 9.85859 130.103 9.85859C129.431 9.85859 128.8 10.0222 128.218 10.3493C127.637 10.6605 127.158 11.1273 126.791 11.7497C126.436 12.3562 126.263 13.0863 126.263 13.9321C126.263 14.7779 126.44 15.52 126.791 16.1584C127.158 16.7967 127.632 17.2875 128.218 17.6266C128.816 17.9538 129.443 18.1174 130.103 18.1174C130.763 18.1174 131.407 17.9538 131.989 17.6266C132.57 17.2995 133.041 16.8247 133.391 16.2023C133.758 15.5639 133.944 14.8218 133.944 13.976Z" fill="#F55D27"/>
<path d="M109.869 13.976C109.869 12.7152 110.129 11.6101 110.653 10.6605C111.189 9.69501 111.928 8.95291 112.86 8.43425C113.796 7.91558 114.869 7.65625 116.082 7.65625C117.616 7.65625 118.883 8.01134 119.877 8.7255C120.888 9.42371 121.572 10.4251 121.923 11.7298H119.093C118.862 11.1233 118.495 10.6486 117.988 10.3054C117.48 9.96232 116.845 9.79475 116.078 9.79475C115.005 9.79475 114.143 10.1658 113.499 10.9079C112.872 11.634 112.555 12.6594 112.555 13.98C112.555 15.3006 112.868 16.3299 113.499 17.072C114.143 17.8141 115.001 18.1852 116.078 18.1852C117.596 18.1852 118.602 17.5388 119.093 16.2502H121.923C121.556 17.495 120.863 18.4884 119.852 19.2305C118.841 19.9566 117.583 20.3197 116.078 20.3197C114.865 20.3197 113.792 20.0604 112.856 19.5417C111.919 19.0071 111.185 18.265 110.649 17.3154C110.129 16.3499 109.865 15.2368 109.865 13.976H109.869Z" fill="#F55D27"/>
<defs>
<linearGradient id="paint0_linear_338_1681" x1="17.3462" y1="21.3371" x2="9.17859" y2="11.5955" gradientUnits="userSpaceOnUse">
<stop stop-color="white"/>
<stop offset="1" stop-color="#265DF5"/>
</linearGradient>
</defs>
</svg>
