<svg width="168" height="46" viewBox="0 0 168 46" fill="none" xmlns="http://www.w3.org/2000/svg">
<g clip-path="url(#clip0_338_1542)">
<path d="M70.3646 12.8579C69.1893 12.8449 68.0258 13.0942 66.9592 13.5876C65.9604 14.0441 65.0861 14.733 64.4095 15.5963L64.4095 13.1425L59.4162 13.1424L59.4161 32.8508L64.4094 32.8508L64.4094 21.9649C64.4094 20.3997 64.8076 19.1962 65.6039 18.3546C66.3998 17.5129 67.4875 17.0915 68.8671 17.0905C70.2216 17.0905 71.2916 17.5118 72.0769 18.3546C72.8622 19.1974 73.2549 20.4008 73.2548 21.965L73.2548 32.8508L78.248 32.8509L78.2481 21.2883C78.2481 18.6332 77.5227 16.5643 76.0714 15.0817C74.6206 13.5992 72.7186 12.858 70.3646 12.8579Z" fill="#265DF5"/>
<path d="M96.5949 15.9545C95.8893 15.0191 94.9828 14.2535 93.9412 13.7141C92.835 13.1218 91.5457 12.825 90.0726 12.824C88.4578 12.8037 86.87 13.2353 85.4885 14.0698C84.0937 14.9288 82.9691 16.1615 82.2424 17.6273C81.4459 19.1716 81.048 20.9366 81.048 22.9221C81.048 24.9397 81.4459 26.7245 82.2424 28.2765C82.9704 29.7551 84.0943 31.0044 85.4884 31.8869C86.8502 32.7392 88.428 33.1836 90.0356 33.1676C91.3927 33.1958 92.7354 32.8841 93.9411 32.2609C94.9972 31.7189 95.907 30.9318 96.5948 29.9659L96.5948 32.8483L101.625 32.8483L101.625 13.145L96.5949 13.145L96.5949 15.9545ZM95.882 26.1123C95.438 26.9404 94.7712 27.6282 93.9556 28.0978C93.165 28.5551 92.267 28.7945 91.3532 28.7911C90.4533 28.7927 89.5698 28.5465 88.8016 28.0796C87.986 27.5843 87.3199 26.8775 86.8752 26.0345C86.3712 25.075 86.1202 24.0034 86.1459 22.9205C86.1459 21.7357 86.3891 20.7104 86.8753 19.8445C87.2067 19.2471 87.6533 18.7216 88.1903 18.2988C88.7279 17.8759 89.3439 17.5642 90.0034 17.3819C90.6629 17.1996 91.352 17.1504 92.0306 17.2371C92.7092 17.3239 93.364 17.5449 93.9556 17.8871C94.7713 18.3568 95.438 19.0446 95.882 19.8727C96.3571 20.7386 96.5949 21.7761 96.5949 22.985C96.5949 24.194 96.357 25.2365 95.882 26.1123Z" fill="#265DF5"/>
<path d="M118.593 23.9991C118.593 25.5643 118.2 26.7678 117.415 27.6094C116.629 28.4511 115.548 28.872 114.17 28.872C112.814 28.872 111.744 28.4511 110.96 27.6094C110.175 26.7678 109.783 25.5643 109.782 23.999L109.782 13.1414L104.789 13.1414L104.789 24.7105C104.789 26.4666 105.128 27.9784 105.805 29.2458C106.432 30.4622 107.406 31.4655 108.606 32.1283C109.866 32.798 111.278 33.1347 112.707 33.1061C113.871 33.117 115.022 32.8677 116.078 32.3765C117.07 31.9248 117.934 31.2339 118.593 30.3661L118.593 32.848L123.621 32.8481L123.621 13.148L118.593 13.148L118.593 23.9991Z" fill="#265DF5"/>
<path d="M144.903 13.1596L138.412 13.1596L131.778 21.5204L131.778 6.54274L126.784 6.54272L126.784 32.8679L131.778 32.8679L131.778 24.4723L138.483 32.868L144.974 32.868L136.2 23.0493L144.903 13.1596Z" fill="#265DF5"/>
<path d="M152.275 16.213L152.275 13.1403L147.278 13.1403L147.278 32.8552L152.272 32.8552L152.272 23.0366C152.272 21.2099 152.67 19.9293 153.466 19.1946C154.262 18.46 155.446 18.0921 157.016 18.091L158.343 18.091L158.343 12.8623C157.125 12.8335 155.92 13.1286 154.854 13.7174C153.788 14.3063 152.897 15.1676 152.275 16.213Z" fill="#265DF5"/>
<path d="M165.666 13.1416L160.672 13.1416L160.672 32.8582L165.666 32.8582L165.666 13.1416Z" fill="#265DF5"/>
<path d="M163.171 10.7919C164.82 10.7919 166.157 9.45847 166.157 7.81355C166.157 6.16868 164.82 4.83522 163.171 4.83522C161.522 4.83521 160.185 6.16866 160.185 7.81353C160.185 9.45844 161.522 10.7919 163.171 10.7919Z" fill="#265DF5"/>
<path d="M23.0585 45.9988C35.7936 45.9988 46.1174 35.7017 46.1175 22.9995C46.1176 10.2972 35.7939 7.85984e-05 23.0588 5.0634e-05C10.3238 2.26696e-05 -2.85337e-05 10.2971 -0.000112734 22.9994C-0.000196935 35.7016 10.3235 45.9987 23.0585 45.9988Z" fill="#265DF5"/>
<path d="M29.9942 31.5167L29.9427 33.848L29.7934 40.5791L29.7934 40.8388C18.39 30.9954 16.4475 28.5946 16.1107 27.8649L16.0991 27.84C16.0586 27.7026 16.049 27.558 16.0709 27.4164C16.079 27.364 16.09 27.3121 16.1041 27.261C16.1157 27.2196 16.1273 27.1799 16.1423 27.1368C16.2652 26.8149 16.4394 26.5149 16.6582 26.2483C16.8149 26.0463 16.9857 25.8556 17.1691 25.6774C17.5615 25.2904 17.9818 24.9326 18.4266 24.6069C18.6472 24.4414 18.8778 24.276 19.1217 24.1105C19.5928 23.7895 20.1021 23.4685 20.6296 23.1558C24.7271 26.9681 29.9277 31.4554 29.9942 31.5167Z" fill="url(#paint0_linear_338_1542)"/>
<path d="M30.1422 9.41021L30.0908 11.7498L30.0642 12.9081L30.0111 15.2361L29.9846 16.4043L29.9332 18.734C29.8519 18.7671 24.6512 20.7791 20.6433 23.1568C20.1157 23.4695 19.6081 23.7906 19.1353 24.1116C18.8931 24.277 18.6609 24.4425 18.4402 24.6079C17.9961 24.9345 17.5759 25.2923 17.1827 25.6785C16.9997 25.857 16.829 26.0477 16.6718 26.2493C16.3102 26.7093 16.0928 27.161 16.0613 27.5862L16.1044 25.6421L16.1044 25.6288L16.1127 25.3277L16.1127 25.2185L16.1476 23.9924L16.214 21.5618L16.2455 20.3737L16.3119 17.9646C17.1364 14.5924 28.7803 9.94464 30.1422 9.41021Z" fill="white"/>
<path d="M19.4099 11.9845C21.3 11.9845 22.8322 10.4562 22.8322 8.57102C22.8322 6.68579 21.3 5.15749 19.4099 5.15748C17.5198 5.15748 15.9876 6.68577 15.9876 8.57099C15.9876 10.4562 17.5198 11.9845 19.4099 11.9845Z" fill="white"/>
</g>
<defs>
<linearGradient id="paint0_linear_338_1542" x1="27.6368" y1="35.0477" x2="14.1517" y2="19.4513" gradientUnits="userSpaceOnUse">
<stop stop-color="white"/>
<stop offset="1" stop-color="#265DF5"/>
</linearGradient>
<clipPath id="clip0_338_1542">
<rect width="168" height="46" fill="white" transform="matrix(1 0 -8.82468e-06 1 0.000405935 0)"/>
</clipPath>
</defs>
</svg>
