<svg width="26" height="26" viewBox="0 0 26 26" fill="none" xmlns="http://www.w3.org/2000/svg">
<g clip-path="url(#clip0_372_1590)">
<path d="M15.7575 5.23491C16.7802 5.43443 17.72 5.93458 18.4568 6.67134C19.1935 7.40809 19.6937 8.34794 19.8932 9.37059M15.7575 1.04688C17.8822 1.28291 19.8634 2.23437 21.376 3.74502C22.8886 5.25568 23.8425 7.23575 24.0812 9.36012M23.0342 17.7153V20.8563C23.0354 21.1479 22.9757 21.4365 22.8588 21.7037C22.742 21.9708 22.5707 22.2107 22.3558 22.4078C22.141 22.6049 21.8873 22.755 21.6111 22.8484C21.3348 22.9418 21.0421 22.9765 20.7517 22.9503C17.5299 22.6002 14.4351 21.4993 11.716 19.736C9.1863 18.1285 7.04151 15.9837 5.434 13.4539C3.66453 10.7225 2.56335 7.61266 2.21968 4.37636C2.19352 4.08683 2.22793 3.79502 2.32072 3.51952C2.41351 3.24401 2.56265 2.99084 2.75864 2.77614C2.95464 2.56143 3.19319 2.38988 3.45912 2.27242C3.72504 2.15496 4.01252 2.09416 4.30323 2.09388H7.44425C7.95237 2.08888 8.44498 2.26882 8.83024 2.60015C9.21551 2.93148 9.46715 3.39159 9.53827 3.89474C9.67085 4.89994 9.91671 5.88691 10.2712 6.83683C10.412 7.21158 10.4425 7.61886 10.359 8.0104C10.2755 8.40195 10.0815 8.76135 9.80002 9.04602L8.47032 10.3757C9.9608 12.997 12.1311 15.1673 14.7524 16.6578L16.0821 15.3281C16.3667 15.0466 16.7261 14.8526 17.1177 14.7691C17.5092 14.6856 17.9165 14.716 18.2913 14.8569C19.2412 15.2114 20.2282 15.4572 21.2334 15.5898C21.742 15.6616 22.2064 15.9178 22.5385 16.3096C22.8705 16.7015 23.047 17.2018 23.0342 17.7153Z" stroke="black" stroke-width="1.25641" stroke-linecap="round" stroke-linejoin="round"/>
</g>
<defs>
<clipPath id="clip0_372_1590">
<rect width="25.1282" height="25.1282" fill="white"/>
</clipPath>
</defs>
</svg>
