<svg width="166" height="61" viewBox="0 0 166 61" fill="none" xmlns="http://www.w3.org/2000/svg">
<g clip-path="url(#clip0_338_1036)">
<path fill-rule="evenodd" clip-rule="evenodd" d="M66.7594 39.4252C68.377 14.9714 36.2643 -1.56179 16.2027 12.7967C-4.35139 28.5806 15.0237 63.7069 44.6632 59.0492C9.4466 65.8295 -14.801 27.9154 10.3686 6.93608C37.5925 -12.9084 74.5076 13.5479 66.7594 39.4234V39.4252Z" fill="#9E0B0F"/>
<path fill-rule="evenodd" clip-rule="evenodd" d="M44.8645 43.7928L51.5847 40.8831L59.9314 44.6963L53.213 47.78L44.8645 43.7928Z" fill="#9E0B0F"/>
<path fill-rule="evenodd" clip-rule="evenodd" d="M54.7715 57.0127L61.4898 54.103L69.8384 57.9163L63.1182 60.9999L54.7715 57.0127Z" fill="#939598"/>
<path fill-rule="evenodd" clip-rule="evenodd" d="M55.4832 48.8574L72.2952 56.7941L78.8626 53.6567L62.0272 45.8706L55.4832 48.8574Z" fill="#939598"/>
<path fill-rule="evenodd" clip-rule="evenodd" d="M36.1223 47.7334L52.7295 55.9767L59.092 52.8393L42.6645 44.7466L36.1223 47.7334Z" fill="#9E0B0F"/>
<path fill-rule="evenodd" clip-rule="evenodd" d="M89.8012 45.885C89.6143 45.6681 89.3033 45.3776 88.8738 45.0101C88.446 44.6444 88.0128 44.3019 87.5797 43.9846L86.061 42.8552C84.3086 42.8175 82.9696 42.3155 82.0511 41.342C81.0986 40.3399 80.7661 39.0114 81.0536 37.3584C81.3718 35.528 82.1895 34.0561 83.5088 32.9464C84.828 31.8366 86.4132 31.2791 88.2663 31.2791C90.1193 31.2791 91.5248 31.7846 92.4738 32.7922C93.4228 33.7997 93.7553 35.13 93.4677 36.7865C93.1514 38.6116 92.3318 40.0799 91.0126 41.1932C90.2703 41.8117 89.4471 42.2635 88.5377 42.545L89.6574 43.2836C90.2882 43.6996 90.8742 44.0599 91.4152 44.3701C91.9526 44.6802 92.2958 44.8541 92.4378 44.8918C91.913 45.0137 91.4655 45.1446 91.097 45.2826C90.7304 45.4189 90.299 45.6214 89.803 45.885H89.8012ZM88.0847 32.3135C87.0153 32.3135 86.0915 32.7671 85.3025 33.6706C84.5171 34.5742 83.9887 35.7987 83.7209 37.3423C83.4818 38.7156 83.6094 39.8056 84.0983 40.6124C84.5908 41.4191 85.3672 41.8207 86.4366 41.8207C87.506 41.8207 88.4388 41.3707 89.2224 40.4654C90.0079 39.5618 90.5345 38.3391 90.8005 36.8027C91.0395 35.4294 90.9155 34.3376 90.4266 33.5272C89.9414 32.7187 89.1595 32.3135 88.0865 32.3135H88.0847Z" fill="#939598"/>
<path fill-rule="evenodd" clip-rule="evenodd" d="M97.3982 36.8868L97.0604 38.7817L96.8734 39.8628C96.78 40.4006 96.8177 40.8058 96.9867 41.0765C97.1556 41.3508 97.454 41.4871 97.8799 41.4871C98.3994 41.4871 98.8199 41.3239 99.1452 40.9923C99.4688 40.6642 99.6844 40.1783 99.7977 39.5293L99.9289 38.7746L100.249 36.8868C100.331 36.3471 100.385 35.942 100.412 35.6748C100.443 35.4059 100.455 35.1424 100.459 34.8824C100.806 34.9093 101.205 34.9236 101.651 34.9236C102.096 34.9236 102.508 34.9093 102.864 34.8824C102.54 36.2503 102.384 36.919 102.389 36.8868L101.733 40.666C101.739 40.6355 101.667 41.3042 101.514 42.6721C101.187 42.6452 100.806 42.6309 100.378 42.6309C99.9504 42.6309 99.5622 42.6452 99.2207 42.6721C99.3286 42.301 99.4166 41.9819 99.4849 41.7166L99.5532 41.3992C99.3807 41.6 99.192 41.7901 98.9889 41.964C98.2933 42.5646 97.5654 42.8622 96.8051 42.8622C95.9784 42.8622 95.3799 42.6363 95.0132 42.1863C94.6466 41.7363 94.5351 41.0945 94.6789 40.2608L94.9377 38.7728L95.2576 36.885C95.3385 36.3507 95.396 35.9473 95.423 35.6784C95.45 35.4131 95.4661 35.1459 95.4679 34.8806C95.8184 34.9075 96.2156 34.9218 96.6614 34.9218C97.1071 34.9218 97.5259 34.9075 97.8853 34.8806C97.7955 35.1459 97.7164 35.4131 97.6499 35.6838C97.587 35.9491 97.5043 36.3489 97.4 36.8832L97.3982 36.8868Z" fill="#939598"/>
<path fill-rule="evenodd" clip-rule="evenodd" d="M105.249 42.8551C104.546 42.8551 104.011 42.6436 103.642 42.2223C103.272 41.801 103.144 41.256 103.261 40.5873C103.358 40.0243 103.617 39.5636 104.041 39.1996C104.464 38.8357 105.084 38.5417 105.9 38.3194L107.76 37.812C108.002 37.7439 108.186 37.6417 108.304 37.5054C108.425 37.3692 108.484 37.1989 108.481 36.9927C108.481 36.67 108.382 36.4029 108.177 36.1967C107.909 35.9206 107.506 35.7808 106.976 35.7808C106.342 35.7754 105.675 36.0013 104.965 36.4567L104.906 35.7342C105.874 35.0439 106.895 34.6997 107.975 34.6997C108.978 34.6997 109.705 34.9041 110.15 35.3128C110.6 35.7198 110.754 36.3168 110.618 37.1021L109.87 41.4119C109.829 41.645 109.859 41.8225 109.962 41.9408C110.064 42.0609 110.235 42.1201 110.477 42.1201H110.614L110.547 42.5038C109.992 42.7368 109.464 42.8534 108.968 42.8534C108.527 42.8534 108.204 42.7063 107.997 42.4159C107.871 42.2259 107.794 41.9874 107.767 41.6988C107.666 41.8153 107.557 41.9265 107.436 42.0323C106.809 42.5773 106.079 42.8516 105.247 42.8516L105.249 42.8551ZM107.965 40.1588L108.276 38.3696L107.532 38.5757C106.989 38.7245 106.565 38.9576 106.25 39.2785C105.936 39.5994 105.736 40.0064 105.65 40.5012C105.574 40.9351 105.603 41.2614 105.732 41.4819C105.864 41.7024 106.095 41.8135 106.43 41.8135C106.804 41.8135 107.134 41.645 107.42 41.3062C107.677 40.996 107.859 40.6159 107.965 40.1606V40.1588Z" fill="#939598"/>
<path fill-rule="evenodd" clip-rule="evenodd" d="M114.548 42.8551C113.562 42.8551 112.839 42.5127 112.381 41.8261C111.922 41.1394 111.797 40.2072 112 39.0383C112.232 37.7044 112.722 36.652 113.475 35.8722C114.228 35.0923 115.129 34.7015 116.182 34.7015C117.054 34.7015 117.704 35.017 118.136 35.6499L118.653 32.5214C118.732 32.0033 118.786 31.6089 118.817 31.34C118.847 31.0746 118.869 30.8004 118.88 30.5171C119.23 30.544 119.626 30.5583 120.073 30.5583C120.521 30.5583 120.936 30.5458 121.295 30.5171C121.207 30.7986 121.135 31.0729 121.073 31.34C121.01 31.6089 120.927 32.0015 120.826 32.5214L120.095 36.5893L119.412 40.6697C119.333 41.1878 119.279 41.5822 119.248 41.8512C119.218 42.1165 119.196 42.3908 119.185 42.6741C118.858 42.6472 118.481 42.6328 118.057 42.6328C117.632 42.6328 117.244 42.6472 116.906 42.6741C117.018 42.303 117.111 41.982 117.187 41.7095L117.199 41.6396L117.091 41.7597C116.385 42.4894 115.535 42.8569 114.548 42.8569V42.8551ZM116.522 35.761C115.988 35.761 115.542 36.021 115.177 36.5409C114.816 37.059 114.545 37.8299 114.367 38.8536C114.198 39.8253 114.2 40.5586 114.376 41.0534C114.55 41.55 114.892 41.7974 115.4 41.7974C115.961 41.7974 116.425 41.5428 116.802 41.0337C117.176 40.5227 117.453 39.7715 117.625 38.7747C117.798 37.7779 117.792 37.0267 117.604 36.5212C117.42 36.0138 117.057 35.761 116.522 35.761Z" fill="#939598"/>
<path fill-rule="evenodd" clip-rule="evenodd" d="M121.68 40.666L122.016 38.7728L122.336 36.885C122.417 36.3507 122.474 35.9473 122.501 35.682C122.528 35.4131 122.544 35.1477 122.546 34.8806C122.873 34.9075 123.254 34.9219 123.682 34.9219C124.11 34.9219 124.505 34.9075 124.849 34.8806C124.741 35.2517 124.655 35.5726 124.586 35.8416L124.383 36.7272C124.619 36.3722 124.854 36.0621 125.091 35.7949C125.756 35.0653 126.425 34.6978 127.095 34.6978C127.158 34.6978 127.232 34.7013 127.311 34.7067C127.39 34.7121 127.466 34.7211 127.532 34.7318C127.419 35.1603 127.331 35.5296 127.262 35.8362C127.196 36.1428 127.128 36.5157 127.058 36.9495L126.871 37.0481C126.72 36.9388 126.576 36.867 126.441 36.8204C126.306 36.7738 126.148 36.7523 125.963 36.7523C125.476 36.7523 125.077 36.937 124.764 37.3099C124.451 37.681 124.234 38.2296 124.108 38.9557L123.819 40.666C123.736 41.2038 123.68 41.6054 123.653 41.8725C123.626 42.1415 123.61 42.4068 123.608 42.6739C123.258 42.647 122.863 42.6327 122.415 42.6327C121.968 42.6327 121.552 42.647 121.193 42.6739C121.283 42.4086 121.36 42.1415 121.428 41.8707C121.491 41.6054 121.574 41.2056 121.678 40.6678L121.68 40.666Z" fill="#939598"/>
<path fill-rule="evenodd" clip-rule="evenodd" d="M129.376 42.8551C128.673 42.8551 128.138 42.6436 127.769 42.2223C127.399 41.801 127.272 41.256 127.388 40.5873C127.485 40.0243 127.744 39.5636 128.168 39.1996C128.591 38.8357 129.211 38.5417 130.027 38.3194L131.887 37.812C132.13 37.7439 132.313 37.6417 132.432 37.5054C132.552 37.3692 132.611 37.1989 132.608 36.9927C132.608 36.67 132.509 36.4029 132.304 36.1967C132.036 35.9206 131.634 35.7808 131.103 35.7808C130.469 35.7754 129.802 36.0013 129.092 36.4567L129.033 35.7342C130.002 35.0439 131.023 34.6997 132.103 34.6997C133.106 34.6997 133.832 34.9041 134.277 35.3128C134.727 35.7198 134.881 36.3168 134.745 37.1021L133.997 41.4119C133.956 41.645 133.986 41.8225 134.089 41.9408C134.191 42.0609 134.362 42.1201 134.605 42.1201H134.741L134.675 42.5038C134.119 42.7368 133.591 42.8534 133.095 42.8534C132.654 42.8534 132.331 42.7063 132.124 42.4159C131.998 42.2259 131.921 41.9874 131.894 41.6988C131.794 41.8153 131.684 41.9265 131.563 42.0323C130.936 42.5773 130.207 42.8516 129.374 42.8516L129.376 42.8551ZM132.092 40.1588L132.403 38.3696L131.659 38.5757C131.116 38.7245 130.692 38.9576 130.377 39.2785C130.063 39.5994 129.863 40.0064 129.777 40.5012C129.701 40.9351 129.73 41.2614 129.86 41.4819C129.991 41.7024 130.223 41.8135 130.557 41.8135C130.931 41.8135 131.262 41.645 131.547 41.3062C131.804 40.996 131.986 40.6159 132.092 40.1606V40.1588Z" fill="#939598"/>
<path fill-rule="evenodd" clip-rule="evenodd" d="M136.382 40.666L136.718 38.7728L137.038 36.885C137.121 36.3507 137.176 35.9473 137.203 35.682C137.23 35.4131 137.247 35.1477 137.248 34.8806C137.575 34.9075 137.956 34.9219 138.384 34.9219C138.812 34.9219 139.207 34.9075 139.551 34.8806C139.437 35.2517 139.346 35.5708 139.272 35.8362L139.215 36.0746C139.38 35.9043 139.547 35.7465 139.723 35.5959C140.446 34.9954 141.211 34.6978 142.02 34.6978C142.829 34.6978 143.383 34.9505 143.755 35.4579C144.127 35.9635 144.234 36.6501 144.085 37.5142L143.866 38.78L143.546 40.6678C143.458 41.2361 143.397 41.6502 143.365 41.9192C143.332 42.1881 143.307 42.4373 143.294 42.6721C142.944 42.6452 142.545 42.6309 142.101 42.6309C141.657 42.6309 141.238 42.6452 140.879 42.6721C140.983 42.4068 141.069 42.1397 141.138 41.8743C141.204 41.6054 141.29 41.2038 141.393 40.6696L141.738 38.7746L141.9 37.7975C141.999 37.2292 141.957 36.8007 141.774 36.5139C141.591 36.2234 141.269 36.08 140.809 36.08C140.315 36.08 139.912 36.2449 139.605 36.5748C139.295 36.9029 139.083 37.3887 138.972 38.0377L138.843 38.7853L138.523 40.6732C138.44 41.2074 138.384 41.609 138.357 41.8779C138.33 42.1432 138.314 42.4104 138.312 42.6757C137.962 42.6488 137.563 42.6345 137.119 42.6345C136.675 42.6345 136.256 42.6488 135.897 42.6757C135.987 42.4104 136.064 42.1432 136.132 41.8725C136.195 41.6072 136.278 41.2074 136.382 40.6696V40.666Z" fill="#939598"/>
<path fill-rule="evenodd" clip-rule="evenodd" d="M147.603 40.0618C147.57 40.25 147.628 40.406 147.779 40.5351C147.926 40.666 148.124 40.7305 148.372 40.7305H149.547C150.536 40.7305 151.237 40.9098 151.648 41.2701C152.062 41.6305 152.202 42.1845 152.071 42.9339C151.923 43.7819 151.422 44.5008 150.57 45.0906C149.715 45.6804 148.744 45.9727 147.655 45.9727C146.566 45.9727 145.726 45.8023 145.189 45.4617C144.648 45.1229 144.432 44.6424 144.542 44.0149C144.628 43.5183 144.82 43.1185 145.121 42.8173C145.419 42.5179 145.823 42.3118 146.337 42.2006C146.224 42.1432 146.122 42.0697 146.03 41.9783C145.739 41.704 145.627 41.3652 145.698 40.9636C145.777 40.5082 146.111 40.121 146.695 39.809C146.95 39.6656 147.222 39.5598 147.506 39.4917C147.064 39.3752 146.697 39.1977 146.4 38.9592C145.89 38.5272 145.699 37.9499 145.827 37.2166C145.962 36.4421 146.359 35.829 147.022 35.379C147.685 34.929 148.516 34.7031 149.517 34.7031L149.986 34.7282L151.517 34.7695C151.967 34.7748 152.384 34.7784 152.766 34.7784C153.149 34.7784 153.39 34.7748 153.491 34.7695C153.431 34.9487 153.392 35.1029 153.368 35.2302C153.345 35.3611 153.333 35.5188 153.329 35.6999C153.248 35.6623 153.115 35.63 152.926 35.6031C152.738 35.578 152.551 35.5619 152.362 35.5565L151.803 35.5314C152.27 35.9868 152.452 36.5246 152.344 37.1467C152.213 37.9033 151.817 38.5039 151.156 38.9449C150.495 39.3841 149.664 39.6046 148.665 39.6046C148.291 39.6046 148.027 39.6405 147.874 39.7086C147.723 39.7714 147.633 39.8897 147.603 40.0636V40.0618ZM149.427 35.4346C149.042 35.4346 148.722 35.5834 148.473 35.8828C148.223 36.184 148.047 36.6268 147.944 37.2166C147.849 37.7616 147.87 38.1758 148.007 38.4519C148.142 38.7315 148.39 38.8696 148.751 38.8696H148.76C149.145 38.8696 149.463 38.7208 149.709 38.425C149.955 38.1292 150.132 37.6899 150.232 37.1055C150.327 36.5551 150.306 36.1392 150.171 35.8559C150.036 35.5762 149.785 35.4346 149.42 35.4346H149.429H149.427ZM146.172 43.6098C146.08 44.1332 146.183 44.533 146.476 44.8073C146.769 45.0816 147.245 45.2179 147.908 45.2179C148.512 45.2179 149.014 45.0745 149.405 44.7894C149.799 44.5008 150.042 44.1046 150.128 43.6026C150.202 43.1759 150.126 42.8693 149.898 42.6829C149.67 42.4946 149.26 42.3996 148.669 42.3996H147.204L146.963 42.3906C146.783 42.491 146.62 42.6596 146.465 42.8962C146.312 43.1329 146.212 43.3713 146.17 43.6098H146.172Z" fill="#939598"/>
<path fill-rule="evenodd" clip-rule="evenodd" d="M154.147 40.6697L154.878 36.6019C155.173 34.9041 155.401 33.5451 155.561 32.5214C155.64 32.0033 155.694 31.6089 155.725 31.34C155.755 31.0746 155.777 30.8004 155.788 30.5171C156.138 30.544 156.534 30.5583 156.981 30.5583C157.429 30.5583 157.844 30.5458 158.203 30.5171C158.115 30.7986 158.043 31.0729 157.98 31.34C157.917 31.6089 157.835 32.0015 157.734 32.5214L157.003 36.5893L156.32 40.6697C156.241 41.1878 156.187 41.5822 156.156 41.8512C156.126 42.1165 156.104 42.3908 156.093 42.6741C155.743 42.6472 155.347 42.6328 154.9 42.6328C154.452 42.6328 154.037 42.6472 153.678 42.6741C153.766 42.3908 153.838 42.1165 153.9 41.8458C153.963 41.5822 154.044 41.1878 154.145 40.6697H154.147Z" fill="#939598"/>
<path fill-rule="evenodd" clip-rule="evenodd" d="M161.843 42.8551C160.603 42.8551 159.682 42.4965 159.082 41.7776C158.484 41.0587 158.291 40.0798 158.505 38.8446C158.726 37.5735 159.249 36.5641 160.08 35.8201C160.91 35.0725 161.92 34.7014 163.112 34.7014C164.176 34.7014 164.958 35.0403 165.463 35.7197C165.869 36.2594 166.043 36.9657 165.989 37.8352C165.977 38.0629 165.955 38.2888 165.921 38.5111C165.889 38.7334 165.854 38.8948 165.822 38.9898L165.819 39.0059C165.628 38.9629 165.283 38.927 164.787 38.9037C164.289 38.8768 163.78 38.8625 163.261 38.8625H160.876C160.773 39.7428 160.849 40.4294 161.108 40.9153C161.406 41.489 161.951 41.7758 162.74 41.7758C163.151 41.7758 163.549 41.7184 163.928 41.6073C164.307 41.4925 164.668 41.3276 165.012 41.1071L165.136 41.281L164.535 42.2204C164.1 42.4266 163.656 42.5844 163.198 42.6937C162.74 42.8031 162.287 42.8569 161.843 42.8569V42.8551ZM163.633 38.0109L163.683 37.7169C163.815 36.9621 163.809 36.3938 163.667 36.0084C163.525 35.6247 163.248 35.4329 162.833 35.4329H162.842C162.386 35.4329 161.996 35.6821 161.674 36.1805C161.395 36.6143 161.176 37.2257 161.018 38.0109H163.635H163.633Z" fill="#939598"/>
</g>
<defs>
<clipPath id="clip0_338_1036">
<rect width="166" height="61" fill="white"/>
</clipPath>
</defs>
</svg>
