<svg width="137" height="57" viewBox="0 0 137 57" fill="none" xmlns="http://www.w3.org/2000/svg">
<path d="M74.9701 33.3938H71.0675V56.5926H74.9701V33.3855V33.3938Z" fill="#01808C"/>
<path d="M25.6675 6.8877H24.5767V10.3389H23.9595C23.7775 10.3388 23.5856 10.2514 23.5854 10.0371H23.5649V6.8877H20.6079L20.5972 10.79C18.9764 9.85487 17.1228 9.36133 15.2339 9.36133C13.345 9.36134 11.4914 9.85486 9.87061 10.79V6.8877H4.88135L15.4468 0L25.6675 6.8877Z" fill="#01808C"/>
<path d="M22.7249 20.0687C22.7249 20.0101 22.7249 19.9516 22.7249 19.8931C23.9171 20.1373 25.047 20.6186 26.0459 21.3077C25.7573 23.8146 24.5981 26.1445 22.7664 27.8991C20.9348 29.6536 18.5444 30.7239 16.004 30.927V27.5612C17.8576 27.344 19.5664 26.4614 20.8069 25.0805C22.0473 23.6997 22.7332 21.9165 22.7347 20.0687" fill="#FAB44E"/>
<path d="M7.85386 20.0687V19.8931C6.66215 20.1391 5.53269 20.6202 4.53284 21.3077C4.82183 23.8162 5.98246 26.1472 7.8161 27.902C9.64975 29.6568 12.0424 30.7261 14.5846 30.927V27.5612C12.7301 27.346 11.0201 26.464 9.77925 25.0828C8.53842 23.7015 7.85324 21.9171 7.85386 20.0687" fill="#FAB44E"/>
<path d="M26.0362 21.3057C25.7461 23.813 24.5867 26.1431 22.7556 27.899C20.9244 29.6548 18.5349 30.7277 15.9943 30.9348V56.6611H16.9009C16.9832 56.6651 17.0643 56.6397 17.1294 56.5896C17.1945 56.5395 17.2393 56.4679 17.2557 56.3879V56.3879C19.6996 41.754 27.1104 36.1444 30.5694 33.3737C30.5694 26.7007 28.7659 23.2178 26.0362 21.3057Z" fill="#01808C"/>
<path d="M4.53315 21.3057C4.82326 23.813 5.98266 26.1431 7.81378 27.899C9.6449 29.6548 12.0344 30.7277 14.5751 30.9348V56.6611H13.6783C13.5955 56.6672 13.5133 56.6427 13.4478 56.5922C13.3822 56.5417 13.338 56.4689 13.3235 56.3879C10.8697 41.7541 3.46885 36.1444 0 33.3737C0 26.7007 1.81325 23.2178 4.53315 21.3057" fill="#01808C"/>
<path d="M114.353 40.4407C113.204 39.711 111.903 39.2613 110.553 39.127C109.203 38.9927 107.841 39.1776 106.573 39.6669L105.644 39.9664V33.3855H101.877V56.5894H105.644V45.4742C105.58 44.981 105.701 44.4817 105.983 44.0739C106.264 43.6661 106.686 43.3793 107.165 43.2694C108.616 42.7538 110.197 42.7538 111.648 43.2694C112.108 43.3754 112.512 43.6541 112.778 44.0494C113.043 44.4446 113.151 44.927 113.079 45.3993V55.1751C113.069 55.3656 113.099 55.556 113.167 55.7337C113.236 55.9115 113.341 56.0725 113.475 56.2062C113.61 56.3399 113.771 56.4432 113.948 56.5092C114.125 56.5753 114.313 56.6026 114.501 56.5894H116.87V44.9417C116.889 44.0411 116.671 43.1516 116.237 42.3648C115.803 41.5781 115.17 40.9225 114.403 40.4656" fill="#01808C"/>
<path fill-rule="evenodd" clip-rule="evenodd" d="M67.7798 35.1922C67.7899 35.4837 67.7411 35.7743 67.6362 36.0469C67.5314 36.3195 67.3726 36.5685 67.1692 36.7794C66.9658 36.9902 66.7219 37.1587 66.4519 37.2748C66.1818 37.3909 65.8911 37.4524 65.5968 37.4555C65.2957 37.4667 64.9954 37.4178 64.7137 37.3118C64.432 37.2058 64.1747 37.0447 63.957 36.8383C63.7393 36.6319 63.5657 36.3842 63.4464 36.11C63.3271 35.8358 63.2646 35.5407 63.2625 35.2421C63.2559 34.6484 63.4874 34.0764 63.9063 33.652C64.3251 33.2275 64.8969 32.9853 65.496 32.9787C66.095 32.972 66.6722 33.2016 67.1005 33.6167C67.5288 34.0318 67.7732 34.5985 67.7798 35.1922Z" fill="#01808C"/>
<path d="M85.6507 39.6971H82.4506C82.0545 39.6873 81.6607 39.7626 81.2953 39.918C80.93 40.0735 80.6013 40.3056 80.331 40.599C80.331 40.599 74.9536 48.1147 74.9701 48.1648L80.331 55.6805C80.5964 55.9807 80.924 56.218 81.2904 56.3753C81.6568 56.5326 82.053 56.6062 82.4506 56.5907H85.6507L79.564 48.1231L85.6507 39.6971Z" fill="#01808C"/>
<path d="M63.6749 55.1761C63.6655 55.3651 63.6949 55.554 63.761 55.7306C63.8271 55.9071 63.9286 56.0673 64.0587 56.2007C64.1889 56.3341 64.3448 56.4378 64.5164 56.505C64.688 56.5721 64.8714 56.6013 65.0546 56.5905H67.3703V39.4927H63.6749V55.1761Z" fill="#01808C"/>
<path d="M57.2666 40.4417C56.1163 39.7119 54.814 39.2621 53.4624 39.1278C52.1108 38.9935 50.7467 39.1784 49.4779 39.6678L48.5475 39.9674V33.3855H44.7766V56.5926H48.5557V45.4758C48.4901 44.9835 48.6091 44.4841 48.8895 44.076C49.1699 43.6679 49.5912 43.3807 50.0706 43.2708C51.5228 42.7551 53.1056 42.7551 54.5578 43.2708C55.019 43.3768 55.4232 43.6556 55.6891 44.0509C55.9549 44.4462 56.0626 44.9286 55.9904 45.401V55.1781C55.982 55.3672 56.013 55.5559 56.0815 55.7321C56.15 55.9083 56.2545 56.0679 56.3881 56.2005C56.5217 56.3332 56.6814 56.4359 56.8569 56.502C57.0324 56.5682 57.2196 56.5962 57.4066 56.5844H59.7695V44.935C59.7879 44.0344 59.5688 43.1451 59.1347 42.3584C58.7007 41.5717 58.0673 40.9159 57.2995 40.4583" fill="#01808C"/>
<path d="M99.1595 51.1166V50.9495C98.9862 49.7825 98.4006 48.7191 97.5117 47.9576C96.9883 47.5038 96.4028 47.1294 95.7734 46.8461C94.3729 46.2194 92.9558 45.6093 91.5718 44.9408H91.6624C91.531 44.8457 91.4236 44.7204 91.3492 44.5751C91.2747 44.4299 91.2352 44.2688 91.234 44.1051C91.2337 43.8356 91.3338 43.5759 91.5141 43.378V43.378C91.5413 43.3438 91.5749 43.3154 91.6129 43.2944V43.2944C91.6951 43.2319 91.787 43.1839 91.8848 43.1523L92.1897 43.0772C92.4283 43.0255 92.6708 42.9947 92.9147 42.9852H93.4584H93.8044H93.8785H94.1834C95.5316 43.0893 96.8608 43.3702 98.1379 43.8209H98.2203V40.6954C98.2413 40.5382 98.2211 40.3783 98.1618 40.2316C98.1025 40.0848 98.0062 39.9566 97.8825 39.8597C97.7633 39.7753 97.6289 39.7157 97.487 39.6841C95.9592 39.2114 94.3611 39.0162 92.7663 39.1076C92.2938 39.1382 91.8234 39.1968 91.3576 39.283C88.8283 39.751 87.1889 41.3389 86.8923 43.6287C86.88 43.8123 86.88 43.9966 86.8923 44.1802C86.8923 44.1802 86.8923 44.1802 86.8923 44.1802C86.9077 44.8689 87.0864 45.5436 87.4134 46.1473C87.7404 46.751 88.2059 47.2659 88.7707 47.6484C89.2146 47.9784 89.6924 48.2587 90.1959 48.4841C91.5635 49.1109 92.9476 49.7043 94.3152 50.3311L94.5953 50.4731H94.653L94.8754 50.6152C95.1233 50.8251 95.2905 51.1168 95.3477 51.4391C95.405 51.7615 95.3486 52.094 95.1885 52.3785C95.1294 52.4774 95.0604 52.5698 94.9825 52.6543C94.7723 52.85 94.5128 52.9831 94.2328 53.0387H94.1175C93.6068 53.1085 93.0922 53.1448 92.5769 53.1474C90.7054 53.1517 88.8622 52.6836 87.2136 51.7852C87.2136 52.7212 87.2136 53.6405 87.2136 54.5597C87.1935 54.9764 87.3163 55.3872 87.5611 55.7224C87.8059 56.0576 88.1577 56.2964 88.5565 56.3982H88.6883C90.1044 56.7991 91.568 57.0015 93.0382 57H93.1453C93.6857 56.9659 94.2227 56.8904 94.7518 56.7743C95.8778 56.6045 96.9186 56.0673 97.7168 55.244C98.515 54.4208 99.0272 53.3562 99.1759 52.2114C99.2172 51.7946 99.2172 51.3746 99.1759 50.9578" fill="#01808C"/>
<path d="M42.0641 50.9965C42.06 50.9415 42.06 50.8862 42.0641 50.8312C41.8892 49.6779 41.3032 48.6272 40.4146 47.8734C39.8919 47.4229 39.3055 47.0525 38.6744 46.7745C37.2723 46.1549 35.862 45.5517 34.4764 44.8908H34.5589C34.439 44.8035 34.3391 44.6915 34.2659 44.5623C34.1928 44.4331 34.148 44.2898 34.1348 44.1419C34.1215 43.994 34.1399 43.8449 34.1889 43.7048C34.2379 43.5646 34.3162 43.4366 34.4187 43.3292V43.3292L34.5176 43.2466C34.603 43.1851 34.6976 43.1376 34.798 43.1061L35.1032 43.0318C35.342 42.98 35.5848 42.9496 35.829 42.9409H36.3651H36.7197H36.7857H37.0991C38.4459 43.0451 39.7737 43.3228 41.0496 43.7672H41.1403V40.6771C41.1614 40.5218 41.1412 40.3636 41.0819 40.2186C41.0225 40.0736 40.926 39.9467 40.8022 39.8509C40.6791 39.769 40.5422 39.7103 40.3981 39.6774C38.8715 39.21 37.2743 39.017 35.6805 39.1073C35.2073 39.1366 34.7364 39.1945 34.2702 39.2808C31.73 39.7435 30.0887 41.3133 29.7918 43.5771C29.7795 43.7586 29.7795 43.9409 29.7918 44.1224C29.8036 44.8031 29.9801 45.4706 30.3062 46.0679C30.6323 46.6651 31.0982 47.1741 31.664 47.5511C32.1101 47.8793 32.5914 48.1564 33.099 48.3774C34.4681 48.997 35.8537 49.5836 37.2228 50.2033L37.5032 50.3437H37.5527C37.631 50.3838 37.7055 50.4308 37.7754 50.4842C37.9318 50.612 38.0575 50.7733 38.1432 50.9564C38.2289 51.1395 38.2723 51.3396 38.2702 51.5417C38.2708 51.7823 38.2083 52.0188 38.0888 52.2275C38.0322 52.327 37.9629 52.4186 37.8826 52.5001C37.6732 52.6951 37.413 52.8269 37.1321 52.8802H37.0166C36.5054 52.9494 35.9902 52.9853 35.4743 52.9876C33.6011 52.9898 31.7564 52.5271 30.1052 51.6409C30.1052 52.5662 30.1052 53.4751 30.1052 54.3839C30.0847 54.7947 30.2065 55.2 30.45 55.5312C30.6934 55.8624 31.0436 56.0992 31.4413 56.2016H31.5815C32.9965 56.5973 34.4589 56.7974 35.928 56.7964H36.0434C36.5816 56.7627 37.1165 56.6881 37.6434 56.5734C38.7711 56.4067 39.8138 55.876 40.6131 55.0619C41.4124 54.2477 41.9247 53.1946 42.0723 52.0623C42.1178 51.6504 42.1178 51.2348 42.0723 50.8229" fill="#01808C"/>
<path d="M133.624 39.4748C133.624 39.9059 133.624 40.3535 133.624 40.8177C131.852 39.48 129.637 38.8819 127.44 39.1473C125.243 39.4128 123.231 40.5215 121.821 42.2436C120.501 43.8363 119.768 45.8414 119.747 47.9179C119.726 49.9943 120.418 52.0141 121.706 53.6336C122.985 55.2848 124.81 56.415 126.848 56.8168C128.027 57.0751 129.248 57.06 130.421 56.7729C131.593 56.4857 132.686 55.9339 133.616 55.1589C134.525 56.057 135.729 56.5854 137 56.6428V39.4748H133.616H133.624ZM128.696 53.1197C128.025 53.1397 127.357 53.0234 126.731 52.7777C126.106 52.532 125.535 52.162 125.054 51.6895C124.573 51.2171 124.191 50.6518 123.93 50.0274C123.67 49.403 123.536 48.7321 123.538 48.0546C123.565 46.731 124.099 45.4696 125.029 44.5355C125.959 43.6014 127.211 43.0676 128.522 43.0461C129.834 43.0246 131.103 43.5172 132.062 44.4204C133.021 45.3235 133.596 46.5668 133.665 47.8889C133.7 48.5668 133.597 49.2448 133.362 49.881C133.128 50.5173 132.766 51.0983 132.301 51.5883C131.835 52.0783 131.275 52.467 130.655 52.7304C130.035 52.9937 129.369 53.1262 128.696 53.1197" fill="#01808C"/>
</svg>
